<svg version="1.1" viewBox="0.0 0.0 1600.0 900.0" fill="none" stroke="none" stroke-linecap="square" stroke-miterlimit="10" xmlns:xlink="http://www.w3.org/1999/xlink" xmlns="http://www.w3.org/2000/svg"><clipPath id="p.0"><path d="m0 0l1600.0 0l0 900.0l-1600.0 0l0 -900.0z" clip-rule="nonzero"/></clipPath><g clip-path="url(#p.0)"><path fill="#000000" fill-opacity="0.0" d="m0 0l1600.0 0l0 900.0l-1600.0 0z" fill-rule="evenodd"/><path fill="#060116" d="m0 -2.0l1600.0 0l0 900.0l-1600.0 0z" fill-rule="evenodd"/><path stroke="#000000" stroke-width="1.0" stroke-linejoin="round" stroke-linecap="butt" d="m0 -2.0l1600.0 0l0 900.0l-1600.0 0z" fill-rule="evenodd"/><path fill="#000000" fill-opacity="0.0" d="m68.0 822.0l1460.0 0" fill-rule="evenodd"/><path stroke="#cccccc" stroke-width="3.0" stroke-linejoin="round" stroke-linecap="butt" d="m68.0 822.0l1460.0 0" fill-rule="evenodd"/><path fill="#000000" fill-opacity="0.0" d="m277.2861 824.04987l0 11.40155" fill-rule="evenodd"/><path stroke="#cccccc" stroke-width="3.0" stroke-linejoin="round" stroke-linecap="butt" d="m277.2861 824.04987l0 11.40155" fill-rule="evenodd"/><path fill="#000000" fill-opacity="0.0" d="m68.0 46.0l0 778.01575" fill-rule="evenodd"/><path stroke="#cccccc" stroke-width="3.0" stroke-linejoin="round" stroke-linecap="butt" d="m68.0 46.0l0 778.01575" fill-rule="evenodd"/><path fill="#000000" fill-opacity="0.0" d="m68.0 417.1706l-11.401573 0" fill-rule="evenodd"/><path stroke="#cccccc" stroke-width="3.0" stroke-linejoin="round" stroke-linecap="butt" d="m68.0 417.1706l-11.401573 0" fill-rule="evenodd"/><path fill="#000000" fill-opacity="0.0" d="m695.8583 824.04987l0 11.40155" fill-rule="evenodd"/><path stroke="#cccccc" stroke-width="3.0" stroke-linejoin="round" stroke-linecap="butt" d="m695.8583 824.04987l0 11.40155" fill-rule="evenodd"/><path fill="#000000" fill-opacity="0.0" d="m486.57217 824.04987l0 11.40155" fill-rule="evenodd"/><path stroke="#cccccc" stroke-width="3.0" stroke-linejoin="round" stroke-linecap="butt" d="m486.57217 824.04987l0 11.40155" fill-rule="evenodd"/><path fill="#000000" fill-opacity="0.0" d="m1113.9291 824.04987l0 11.40155" fill-rule="evenodd"/><path stroke="#cccccc" stroke-width="3.0" stroke-linejoin="round" stroke-linecap="butt" d="m1113.9291 824.04987l0 11.40155" fill-rule="evenodd"/><path fill="#000000" fill-opacity="0.0" d="m904.64307 824.04987l0 11.40155" fill-rule="evenodd"/><path stroke="#cccccc" stroke-width="3.0" stroke-linejoin="round" stroke-linecap="butt" d="m904.64307 824.04987l0 11.40155" fill-rule="evenodd"/><path fill="#000000" fill-opacity="0.0" d="m1323.2152 824.04987l0 11.40155" fill-rule="evenodd"/><path stroke="#cccccc" stroke-width="3.0" stroke-linejoin="round" stroke-linecap="butt" d="m1323.2152 824.04987l0 11.40155" fill-rule="evenodd"/><path fill="#000000" fill-opacity="0.0" d="m10.748032 357.66403l0 -227.27557l31.02362 0l0 227.27557z" fill-rule="evenodd"/><path fill="#cccccc" d="m42.975533 345.22653q0 0.75 -0.40625 1.171875q-0.421875 0.421875 -1.21875 0.421875l-13.84375 0q-0.796875 0 -1.21875 -0.421875q-0.421875 -0.421875 -0.421875 -1.21875l0 -8.375q0 -0.625 0.3125 -0.9375q0.3125 -0.3125 0.890625 -0.3125q0.59375 0 0.921875 0.3125q0.328125 0.3125 0.328125 0.9375l0 6.9375l4.765625 0l0 -6.4375q0 -0.59375 0.3125 -0.90625q0.3125 -0.328125 0.890625 -0.328125q0.609375 0 0.9375 0.328125q0.3125 0.3125 0.3125 0.90625l0 6.4375l5.8125 0q1.625 0 1.625 1.484375zm0 -12.904205q0 0.734375 -0.390625 1.140625q-0.390625 0.390625 -1.140625 0.390625l-9.078125 0q-0.734375 0 -1.109375 -0.375q-0.390625 -0.390625 -0.390625 -1.09375q0 -0.6875 0.390625 -1.0625q0.375 -0.390625 1.109375 -0.390625l1.515625 0l0 0.234375q-1.4375 -0.328125 -2.171875 -1.3125q-0.75 -0.984375 -0.890625 -2.625q-0.0625 -0.5 0.25 -0.796875q0.296875 -0.296875 0.921875 -0.359375q0.59375 -0.046875 0.96875 0.28125q0.375 0.328125 0.4375 0.96875l0.046875 0.53125q0.15625 1.46875 0.90625 2.21875q0.75 0.734375 2.125 0.734375l4.96875 0q0.75 0 1.140625 0.390625q0.390625 0.375 0.390625 1.125zm0.046875 -13.465973q0 1.984375 -0.734375 3.4375q-0.75 1.4375 -2.109375 2.21875q-1.375 0.78125 -3.25 0.78125q-1.828125 0 -3.1875 -0.75q-1.375 -0.765625 -2.140625 -2.09375q-0.78125 -1.34375 -0.78125 -3.046875q0 -1.25 0.40625 -2.234375q0.40625 -1.0 1.171875 -1.703125q0.765625 -0.71875 1.859375 -1.078125q1.09375 -0.375 2.453125 -0.375q0.4375 0 0.671875 0.296875q0.21875 0.296875 0.21875 0.84375l0 7.703125l-1.71875 0l0 -6.734375l0.359375 0.375q-1.109375 0 -1.84375 0.328125q-0.75 0.328125 -1.140625 0.9375q-0.40625 0.609375 -0.40625 1.53125q0 1.0 0.46875 1.71875q0.46875 0.703125 1.328125 1.078125q0.84375 0.359375 2.015625 0.359375l0.171875 0q1.96875 0 2.9375 -0.921875q0.96875 -0.921875 0.96875 -2.71875q0 -0.625 -0.15625 -1.40625q-0.15625 -0.78125 -0.53125 -1.46875q-0.296875 -0.515625 -0.25 -0.890625q0.03125 -0.390625 0.28125 -0.609375q0.234375 -0.234375 0.578125 -0.28125q0.34375 -0.046875 0.703125 0.140625q0.359375 0.171875 0.625 0.609375q0.53125 0.828125 0.78125 1.921875q0.25 1.09375 0.25 2.03125zm4.28125 -16.99234q0 0.71875 -0.390625 1.109375q-0.375 0.375 -1.125 0.375l-5.40625 0l0 -0.265625q1.1875 0.390625 1.921875 1.484375q0.71875 1.09375 0.71875 2.546875q0 1.546875 -0.734375 2.71875q-0.75 1.15625 -2.125 1.8125q-1.390625 0.640625 -3.25 0.640625q-1.90625 0 -3.25 -0.640625q-1.359375 -0.65625 -2.09375 -1.8125q-0.75 -1.171875 -0.75 -2.71875q0 -1.484375 0.75 -2.578125q0.734375 -1.109375 1.953125 -1.46875l0.71875 0.265625l-1.875 0q-0.734375 0 -1.109375 -0.375q-0.390625 -0.390625 -0.390625 -1.125q0 -0.71875 0.390625 -1.09375q0.375 -0.390625 1.109375 -0.390625l13.421875 0q0.75 0 1.125 0.40625q0.390625 0.390625 0.390625 1.109375zm-6.5625 4.421875q0 -0.890625 -0.421875 -1.5625q-0.4375 -0.671875 -1.28125 -1.046875q-0.859375 -0.375 -2.125 -0.375q-1.921875 0 -2.875 0.828125q-0.953125 0.8125 -0.953125 2.15625q0 0.875 0.421875 1.546875q0.421875 0.671875 1.28125 1.046875q0.84375 0.375 2.125 0.375q1.890625 0 2.859375 -0.8125q0.96875 -0.8125 0.96875 -2.15625zm2.28125 -13.306213q0 1.46875 -0.53125 2.4375q-0.546875 0.953125 -1.625 1.421875q-1.078125 0.46875 -2.6875 0.46875l-5.8125 0q-0.765625 0 -1.125 -0.375q-0.375 -0.390625 -0.375 -1.109375q0 -0.734375 0.375 -1.125q0.359375 -0.390625 1.125 -0.390625l5.859375 0q1.25 0 1.859375 -0.5q0.59375 -0.515625 0.59375 -1.609375q0 -1.203125 -0.828125 -1.96875q-0.828125 -0.78125 -2.203125 -0.78125l-5.28125 0q-0.765625 0 -1.125 -0.375q-0.375 -0.390625 -0.375 -1.109375q0 -0.71875 0.375 -1.109375q0.359375 -0.40625 1.125 -0.40625l9.078125 0q1.53125 0 1.53125 1.46875q0 0.703125 -0.390625 1.09375q-0.390625 0.375 -1.140625 0.375l-1.828125 0l0.71875 -0.34375q1.296875 0.515625 2.0 1.53125q0.6875 1.015625 0.6875 2.40625zm0 -15.427216q0 1.984375 -0.734375 3.4375q-0.75 1.4375 -2.109375 2.21875q-1.375 0.78125 -3.25 0.78125q-1.828125 0 -3.1875 -0.75q-1.375 -0.765625 -2.140625 -2.09375q-0.78125 -1.34375 -0.78125 -3.046875q0 -1.25 0.40625 -2.234375q0.40625 -1.0 1.171875 -1.703125q0.765625 -0.71875 1.859375 -1.078125q1.09375 -0.375 2.453125 -0.375q0.4375 0 0.671875 0.296875q0.21875 0.296875 0.21875 0.84375l0 7.703125l-1.71875 0l0 -6.734375l0.359375 0.375q-1.109375 0 -1.84375 0.328125q-0.75 0.328125 -1.140625 0.9375q-0.40625 0.609375 -0.40625 1.53125q0 1.0 0.46875 1.71875q0.46875 0.703125 1.328125 1.078125q0.84375 0.359375 2.015625 0.359375l0.171875 0q1.96875 0 2.9375 -0.921875q0.96875 -0.921875 0.96875 -2.71875q0 -0.625 -0.15625 -1.40625q-0.15625 -0.78125 -0.53125 -1.46875q-0.296875 -0.515625 -0.25 -0.890625q0.03125 -0.390625 0.28125 -0.609375q0.234375 -0.234375 0.578125 -0.28125q0.34375 -0.046875 0.703125 0.140625q0.359375 0.171875 0.625 0.609375q0.53125 0.828125 0.78125 1.921875q0.25 1.09375 0.25 2.03125zm-0.046875 -8.71109q0 0.71875 -0.390625 1.109375q-0.390625 0.375 -1.140625 0.375l-9.078125 0q-0.734375 0 -1.109375 -0.375q-0.390625 -0.390625 -0.390625 -1.09375q0 -0.6875 0.390625 -1.0625q0.375 -0.390625 1.109375 -0.390625l1.640625 0l-0.609375 0.265625q-1.265625 -0.53125 -1.921875 -1.640625q-0.65625 -1.125 -0.65625 -2.546875q0 -1.40625 0.53125 -2.3125q0.515625 -0.921875 1.59375 -1.375q1.0625 -0.453125 2.6875 -0.453125l5.8125 0q0.75 0 1.140625 0.390625q0.390625 0.375 0.390625 1.09375q0 0.71875 -0.390625 1.125q-0.390625 0.390625 -1.140625 0.390625l-5.671875 0q-1.359375 0 -1.984375 0.515625q-0.625 0.515625 -0.625 1.59375q0 1.3125 0.828125 2.09375q0.828125 0.78125 2.203125 0.78125l5.25 0q1.53125 0 1.53125 1.515625zm0.046875 -17.977448q0 1.84375 -0.75 3.21875q-0.75 1.359375 -2.140625 2.109375q-1.40625 0.75 -3.265625 0.75q-1.421875 0 -2.53125 -0.421875q-1.125 -0.421875 -1.90625 -1.21875q-0.78125 -0.796875 -1.1875 -1.921875q-0.421875 -1.125 -0.421875 -2.515625q0 -0.796875 0.21875 -1.71875q0.203125 -0.921875 0.703125 -1.734375q0.25 -0.390625 0.59375 -0.5q0.328125 -0.125 0.671875 -0.046875q0.34375 0.0625 0.609375 0.296875q0.25 0.21875 0.3125 0.5625q0.046875 0.328125 -0.171875 0.734375q-0.3125 0.53125 -0.453125 1.09375q-0.15625 0.546875 -0.15625 1.046875q0 0.796875 0.25 1.40625q0.25 0.59375 0.71875 1.015625q0.46875 0.40625 1.171875 0.625q0.6875 0.21875 1.59375 0.21875q1.78125 0 2.796875 -0.84375q1.015625 -0.859375 1.015625 -2.421875q0 -0.5 -0.140625 -1.03125q-0.140625 -0.546875 -0.453125 -1.109375q-0.21875 -0.40625 -0.140625 -0.71875q0.0625 -0.328125 0.328125 -0.546875q0.25 -0.21875 0.59375 -0.265625q0.34375 -0.046875 0.6875 0.09375q0.328125 0.125 0.546875 0.484375q0.484375 0.796875 0.6875 1.6875q0.21875 0.875 0.21875 1.671875zm4.28125 -9.066849q0 0.515625 -0.28125 0.859375q-0.28125 0.328125 -0.734375 0.390625q-0.453125 0.0625 -0.953125 -0.15625l-3.625 -1.625l1.25 0l-10.109375 4.359375q-0.53125 0.21875 -0.984375 0.15625q-0.453125 -0.078125 -0.71875 -0.453125q-0.28125 -0.375 -0.28125 -1.015625q0 -0.546875 0.25 -0.875q0.25 -0.34375 0.9375 -0.609375l8.09375 -3.25l0 0.71875l-8.109375 -3.3125q-0.671875 -0.25 -0.921875 -0.609375q-0.25 -0.359375 -0.25 -0.96875q0 -0.53125 0.28125 -0.84375q0.265625 -0.3125 0.71875 -0.375q0.4375 -0.078125 0.96875 0.171875l13.3125 5.828125q0.671875 0.3125 0.90625 0.671875q0.25 0.359375 0.25 0.9375zm-0.609375 -19.79982q-2.34375 1.484375 -4.9375 2.140625q-2.609375 0.65625 -5.28125 0.65625q-1.78125 0 -3.53125 -0.28125q-1.75 -0.28125 -3.4375 -0.90625q-1.6875 -0.625 -3.25 -1.609375q-0.4375 -0.265625 -0.546875 -0.703125q-0.109375 -0.453125 0.0625 -0.84375q0.171875 -0.40625 0.625 -0.59375q0.4375 -0.1875 1.109375 0.046875q1.53125 0.578125 3.015625 0.953125q1.46875 0.375 2.9375 0.5625q1.453125 0.171875 3.015625 0.171875q1.5625 0 3.03125 -0.1875q1.453125 -0.203125 2.921875 -0.578125q1.46875 -0.390625 3.015625 -0.921875q0.6875 -0.234375 1.125 -0.046875q0.4375 0.1875 0.609375 0.59375q0.171875 0.390625 0.0625 0.84375q-0.109375 0.4375 -0.546875 0.703125zm-3.71875 -6.43573q0 0.71875 -0.390625 1.109375q-0.390625 0.375 -1.140625 0.375l-14.25 0q-0.75 0 -1.125 -0.375q-0.390625 -0.390625 -0.390625 -1.109375q0 -0.71875 0.390625 -1.109375q0.375 -0.40625 1.125 -0.40625l8.84375 0l0 -0.046875l-4.171875 -3.953125q-0.484375 -0.484375 -0.734375 -0.84375q-0.265625 -0.359375 -0.265625 -0.984375q0 -0.625 0.328125 -0.9375q0.3125 -0.328125 0.765625 -0.328125q0.453125 0 0.921875 0.421875l4.40625 4.171875l-1.25 0l4.953125 -4.578125q0.453125 -0.4375 0.921875 -0.390625q0.46875 0.03125 0.765625 0.390625q0.296875 0.359375 0.296875 0.90625q0 0.671875 -0.265625 1.078125q-0.265625 0.390625 -0.78125 0.875l-4.375 4.171875l0 0.046875l3.890625 0q1.53125 0 1.53125 1.515625zm0 -13.207718q0 0.75 -0.40625 1.15625q-0.421875 0.390625 -1.171875 0.390625l-14.140625 0q-0.765625 0 -1.171875 -0.390625q-0.40625 -0.40625 -0.40625 -1.15625q0 -0.734375 0.40625 -1.125q0.40625 -0.40625 1.171875 -0.40625l5.671875 0l0 -8.703125l-5.671875 0q-0.765625 0 -1.171875 -0.390625q-0.40625 -0.40625 -0.40625 -1.15625q0 -0.734375 0.40625 -1.125q0.40625 -0.40625 1.171875 -0.40625l14.140625 0q0.75 0 1.171875 0.40625q0.40625 0.390625 0.40625 1.125q0 0.75 -0.40625 1.15625q-0.421875 0.390625 -1.171875 0.390625l-5.90625 0l0 8.703125l5.90625 0q0.75 0 1.171875 0.390625q0.40625 0.375 0.40625 1.140625zm-0.1875 -17.442566q0 0.453125 -0.21875 0.765625q-0.234375 0.296875 -0.59375 0.390625q-0.359375 0.09375 -0.78125 -0.015625q-0.421875 -0.109375 -0.8125 -0.4375l-7.796875 -6.21875l0.71875 0l0 5.65625q0 0.5625 -0.296875 0.859375q-0.296875 0.296875 -0.828125 0.296875q-0.546875 0 -0.828125 -0.296875q-0.296875 -0.296875 -0.296875 -0.859375l0 -7.09375q0 -0.53125 0.234375 -0.859375q0.21875 -0.34375 0.578125 -0.453125q0.359375 -0.109375 0.765625 -0.015625q0.40625 0.09375 0.765625 0.4375l7.921875 6.328125l-0.78125 0l0 -6.0q0 -1.140625 1.125 -1.140625q0.53125 0 0.828125 0.296875q0.296875 0.296875 0.296875 0.84375l0 7.515625zm3.90625 -12.485336q0.4375 0.265625 0.546875 0.71875q0.109375 0.4375 -0.078125 0.84375q-0.171875 0.40625 -0.609375 0.59375q-0.421875 0.171875 -1.109375 -0.0625q-1.546875 -0.59375 -3.015625 -0.953125q-1.46875 -0.359375 -2.921875 -0.53125q-1.46875 -0.1875 -3.03125 -0.1875q-1.5625 0 -3.015625 0.1875q-1.46875 0.1875 -2.9375 0.5625q-1.46875 0.375 -3.015625 0.921875q-0.671875 0.234375 -1.109375 0.046875q-0.453125 -0.1875 -0.625 -0.59375q-0.171875 -0.40625 -0.0625 -0.84375q0.109375 -0.4375 0.546875 -0.703125q2.328125 -1.453125 4.953125 -2.125q2.609375 -0.671875 5.265625 -0.671875q1.78125 0 3.53125 0.296875q1.75 0.296875 3.4375 0.90625q1.703125 0.609375 3.25 1.59375z" fill-rule="nonzero"/><path fill="#000000" fill-opacity="0.0" d="m677.1811 844.9055l245.63782 0l0 26.519653l-245.63782 0z" fill-rule="evenodd"/><path fill="#cccccc" d="m709.36304 877.1799q-2.640625 0 -4.53125 -1.0625q-1.875 -1.0625 -2.890625 -3.015625q-1.0 -1.96875 -1.0 -4.625q0 -2.0 0.578125 -3.59375q0.578125 -1.59375 1.65625 -2.734375q1.078125 -1.140625 2.640625 -1.75q1.578125 -0.609375 3.546875 -0.609375q1.328125 0 2.59375 0.34375q1.265625 0.328125 2.234375 0.953125q0.5 0.3125 0.671875 0.765625q0.171875 0.4375 0.0625 0.859375q-0.09375 0.40625 -0.390625 0.703125q-0.296875 0.28125 -0.75 0.328125q-0.4375 0.03125 -0.96875 -0.3125q-0.734375 -0.46875 -1.609375 -0.6875q-0.859375 -0.21875 -1.75 -0.21875q-1.703125 0 -2.875 0.703125q-1.171875 0.6875 -1.78125 2.015625q-0.59375 1.3125 -0.59375 3.234375q0 1.890625 0.59375 3.234375q0.609375 1.34375 1.78125 2.046875q1.171875 0.6875 2.875 0.6875q0.921875 0 1.796875 -0.21875q0.890625 -0.234375 1.6875 -0.71875q0.53125 -0.3125 0.9375 -0.265625q0.421875 0.03125 0.703125 0.296875q0.296875 0.265625 0.390625 0.65625q0.109375 0.390625 -0.046875 0.8125q-0.140625 0.421875 -0.5625 0.734375q-0.96875 0.703125 -2.296875 1.078125q-1.328125 0.359375 -2.703125 0.359375zm12.667419 0q-1.8125 0 -3.15625 -0.734375q-1.34375 -0.75 -2.09375 -2.125q-0.75 -1.390625 -0.75 -3.25q0 -1.421875 0.421875 -2.53125q0.421875 -1.125 1.21875 -1.921875q0.796875 -0.8125 1.890625 -1.21875q1.109375 -0.421875 2.46875 -0.421875q1.828125 0 3.171875 0.75q1.34375 0.734375 2.078125 2.109375q0.75 1.359375 0.75 3.234375q0 1.40625 -0.421875 2.546875q-0.40625 1.125 -1.203125 1.9375q-0.796875 0.796875 -1.90625 1.21875q-1.09375 0.40625 -2.46875 0.40625zm0 -2.28125q0.890625 0 1.5625 -0.421875q0.671875 -0.4375 1.046875 -1.28125q0.375 -0.859375 0.375 -2.125q0 -1.921875 -0.828125 -2.875q-0.8125 -0.953125 -2.15625 -0.953125q-0.875 0 -1.546875 0.421875q-0.671875 0.421875 -1.046875 1.28125q-0.375 0.84375 -0.375 2.125q0 1.890625 0.8125 2.859375q0.8125 0.96875 2.15625 0.96875zm10.011475 2.234375q-0.71875 0 -1.109375 -0.390625q-0.375 -0.390625 -0.375 -1.140625l0 -9.078125q0 -0.734375 0.375 -1.109375q0.390625 -0.390625 1.09375 -0.390625q0.6875 0 1.0625 0.390625q0.390625 0.375 0.390625 1.109375l0 1.765625l-0.265625 -0.734375q0.484375 -1.1875 1.484375 -1.875q1.015625 -0.703125 2.40625 -0.703125q1.421875 0 2.328125 0.671875q0.921875 0.671875 1.28125 2.0625l-0.34375 0q0.484375 -1.28125 1.578125 -2.0q1.109375 -0.734375 2.546875 -0.734375q1.34375 0 2.21875 0.53125q0.875 0.515625 1.3125 1.59375q0.4375 1.0625 0.4375 2.6875l0 5.8125q0 0.75 -0.40625 1.140625q-0.390625 0.390625 -1.109375 0.390625q-0.71875 0 -1.109375 -0.390625q-0.375 -0.390625 -0.375 -1.140625l0 -5.6875q0 -1.34375 -0.453125 -1.96875q-0.4375 -0.625 -1.5 -0.625q-1.171875 0 -1.84375 0.828125q-0.671875 0.828125 -0.671875 2.296875l0 5.15625q0 0.75 -0.390625 1.140625q-0.375 0.390625 -1.09375 0.390625q-0.71875 0 -1.125 -0.390625q-0.390625 -0.390625 -0.390625 -1.140625l0 -5.6875q0 -1.34375 -0.453125 -1.96875q-0.4375 -0.625 -1.46875 -0.625q-1.171875 0 -1.84375 0.828125q-0.671875 0.828125 -0.671875 2.296875l0 5.15625q0 1.53125 -1.515625 1.53125zm21.001099 4.328125q-0.71875 0 -1.109375 -0.390625q-0.375 -0.375 -0.375 -1.125l0 -13.421875q0 -0.734375 0.375 -1.109375q0.390625 -0.390625 1.09375 -0.390625q0.71875 0 1.09375 0.390625q0.390625 0.375 0.390625 1.109375l0 1.875l-0.265625 -0.71875q0.359375 -1.21875 1.46875 -1.953125q1.125 -0.75 2.609375 -0.75q1.53125 0 2.6875 0.75q1.171875 0.734375 1.8125 2.09375q0.65625 1.34375 0.65625 3.25q0 1.859375 -0.65625 3.25q-0.640625 1.375 -1.796875 2.125q-1.140625 0.734375 -2.703125 0.734375q-1.46875 0 -2.578125 -0.71875q-1.09375 -0.734375 -1.484375 -1.921875l0.296875 0l0 5.40625q0 0.75 -0.40625 1.125q-0.390625 0.390625 -1.109375 0.390625zm4.4375 -6.5625q0.890625 0 1.5625 -0.421875q0.671875 -0.4375 1.046875 -1.28125q0.375 -0.859375 0.375 -2.125q0 -1.921875 -0.828125 -2.875q-0.8125 -0.953125 -2.15625 -0.953125q-0.890625 0 -1.5625 0.421875q-0.671875 0.421875 -1.046875 1.28125q-0.359375 0.84375 -0.359375 2.125q0 1.890625 0.8125 2.859375q0.8125 0.96875 2.15625 0.96875zm10.009338 2.234375q-0.734375 0 -1.140625 -0.390625q-0.390625 -0.390625 -0.390625 -1.140625l0 -9.078125q0 -0.734375 0.375 -1.109375q0.390625 -0.390625 1.09375 -0.390625q0.6875 0 1.0625 0.390625q0.390625 0.375 0.390625 1.109375l0 1.515625l-0.234375 0q0.328125 -1.4375 1.3125 -2.171875q0.984375 -0.75 2.625 -0.890625q0.5 -0.0625 0.796875 0.25q0.296875 0.296875 0.359375 0.921875q0.046875 0.59375 -0.28125 0.96875q-0.328125 0.375 -0.96875 0.4375l-0.53125 0.046875q-1.46875 0.15625 -2.21875 0.90625q-0.734375 0.75 -0.734375 2.125l0 4.96875q0 0.75 -0.390625 1.140625q-0.375 0.390625 -1.125 0.390625zm13.465942 0.046875q-1.984375 0 -3.4375 -0.734375q-1.4375 -0.75 -2.21875 -2.109375q-0.78125 -1.375 -0.78125 -3.25q0 -1.828125 0.75 -3.1875q0.765625 -1.375 2.09375 -2.140625q1.34375 -0.78125 3.046875 -0.78125q1.25 0 2.234375 0.40625q1.0 0.40625 1.703125 1.171875q0.71875 0.765625 1.078125 1.859375q0.375 1.09375 0.375 2.453125q0 0.4375 -0.296875 0.671875q-0.296875 0.21875 -0.84375 0.21875l-7.703125 0l0 -1.71875l6.734375 0l-0.375 0.359375q0 -1.109375 -0.328125 -1.84375q-0.328125 -0.75 -0.9375 -1.140625q-0.609375 -0.40625 -1.53125 -0.40625q-1.0 0 -1.71875 0.46875q-0.703125 0.46875 -1.078125 1.328125q-0.359375 0.84375 -0.359375 2.015625l0 0.171875q0 1.96875 0.921875 2.9375q0.921875 0.96875 2.71875 0.96875q0.625 0 1.40625 -0.15625q0.78125 -0.15625 1.46875 -0.53125q0.515625 -0.296875 0.890625 -0.25q0.390625 0.03125 0.609375 0.28125q0.234375 0.234375 0.28125 0.578125q0.046875 0.34375 -0.140625 0.703125q-0.171875 0.359375 -0.609375 0.625q-0.828125 0.53125 -1.921875 0.78125q-1.09375 0.25 -2.03125 0.25zm11.523621 0q-1.03125 0 -2.1875 -0.21875q-1.15625 -0.203125 -2.0625 -0.734375q-0.390625 -0.234375 -0.546875 -0.5625q-0.15625 -0.328125 -0.125 -0.640625q0.046875 -0.328125 0.25 -0.5625q0.203125 -0.25 0.53125 -0.3125q0.328125 -0.078125 0.703125 0.109375q0.96875 0.453125 1.796875 0.640625q0.84375 0.171875 1.65625 0.171875q1.15625 0 1.71875 -0.390625q0.5625 -0.390625 0.5625 -1.046875q0 -0.546875 -0.375 -0.84375q-0.359375 -0.3125 -1.109375 -0.453125l-2.40625 -0.453125q-1.484375 -0.296875 -2.265625 -1.09375q-0.78125 -0.796875 -0.78125 -2.078125q0 -1.15625 0.640625 -1.984375q0.640625 -0.84375 1.765625 -1.296875q1.125 -0.453125 2.59375 -0.453125q1.046875 0 1.96875 0.234375q0.9375 0.21875 1.796875 0.6875q0.359375 0.203125 0.484375 0.515625q0.140625 0.3125 0.0625 0.640625q-0.0625 0.3125 -0.28125 0.5625q-0.21875 0.25 -0.546875 0.3125q-0.3125 0.0625 -0.734375 -0.125q-0.734375 -0.390625 -1.421875 -0.546875q-0.6875 -0.171875 -1.3125 -0.171875q-1.171875 0 -1.734375 0.40625q-0.5625 0.40625 -0.5625 1.078125q0 0.5 0.328125 0.84375q0.34375 0.328125 1.03125 0.453125l2.40625 0.453125q1.5625 0.28125 2.359375 1.0625q0.8125 0.765625 0.8125 2.0625q0 1.75 -1.375 2.75q-1.359375 0.984375 -3.640625 0.984375zm11.711914 0q-1.03125 0 -2.1875 -0.21875q-1.15625 -0.203125 -2.0625 -0.734375q-0.390625 -0.234375 -0.546875 -0.5625q-0.15625 -0.328125 -0.125 -0.640625q0.046875 -0.328125 0.25 -0.5625q0.203125 -0.25 0.53125 -0.3125q0.328125 -0.078125 0.703125 0.109375q0.96875 0.453125 1.796875 0.640625q0.84375 0.171875 1.65625 0.171875q1.15625 0 1.71875 -0.390625q0.5625 -0.390625 0.5625 -1.046875q0 -0.546875 -0.375 -0.84375q-0.359375 -0.3125 -1.109375 -0.453125l-2.40625 -0.453125q-1.484375 -0.296875 -2.265625 -1.09375q-0.78125 -0.796875 -0.78125 -2.078125q0 -1.15625 0.640625 -1.984375q0.640625 -0.84375 1.765625 -1.296875q1.125 -0.453125 2.59375 -0.453125q1.046875 0 1.96875 0.234375q0.9375 0.21875 1.796875 0.6875q0.359375 0.203125 0.484375 0.515625q0.140625 0.3125 0.0625 0.640625q-0.0625 0.3125 -0.28125 0.5625q-0.21875 0.25 -0.546875 0.3125q-0.3125 0.0625 -0.734375 -0.125q-0.734375 -0.390625 -1.421875 -0.546875q-0.6875 -0.171875 -1.3125 -0.171875q-1.171875 0 -1.734375 0.40625q-0.5625 0.40625 -0.5625 1.078125q0 0.5 0.328125 0.84375q0.34375 0.328125 1.03125 0.453125l2.40625 0.453125q1.5625 0.28125 2.359375 1.0625q0.8125 0.765625 0.8125 2.0625q0 1.75 -1.375 2.75q-1.359375 0.984375 -3.640625 0.984375zm13.19635 0q-1.984375 0 -3.4375 -0.734375q-1.4375 -0.75 -2.21875 -2.109375q-0.78125 -1.375 -0.78125 -3.25q0 -1.828125 0.75 -3.1875q0.765625 -1.375 2.09375 -2.140625q1.34375 -0.78125 3.046875 -0.78125q1.25 0 2.234375 0.40625q1.0 0.40625 1.703125 1.171875q0.71875 0.765625 1.078125 1.859375q0.375 1.09375 0.375 2.453125q0 0.4375 -0.296875 0.671875q-0.296875 0.21875 -0.84375 0.21875l-7.703125 0l0 -1.71875l6.734375 0l-0.375 0.359375q0 -1.109375 -0.328125 -1.84375q-0.328125 -0.75 -0.9375 -1.140625q-0.609375 -0.40625 -1.53125 -0.40625q-1.0 0 -1.71875 0.46875q-0.703125 0.46875 -1.078125 1.328125q-0.359375 0.84375 -0.359375 2.015625l0 0.171875q0 1.96875 0.921875 2.9375q0.921875 0.96875 2.71875 0.96875q0.625 0 1.40625 -0.15625q0.78125 -0.15625 1.46875 -0.53125q0.515625 -0.296875 0.890625 -0.25q0.390625 0.03125 0.609375 0.28125q0.234375 0.234375 0.28125 0.578125q0.046875 0.34375 -0.140625 0.703125q-0.171875 0.359375 -0.609375 0.625q-0.828125 0.53125 -1.921875 0.78125q-1.09375 0.25 -2.03125 0.25zm11.742371 0q-1.546875 0 -2.71875 -0.734375q-1.15625 -0.75 -1.8125 -2.125q-0.640625 -1.390625 -0.640625 -3.25q0 -1.90625 0.640625 -3.25q0.65625 -1.359375 1.8125 -2.09375q1.171875 -0.75 2.71875 -0.75q1.453125 0 2.546875 0.71875q1.09375 0.71875 1.484375 1.890625l-0.265625 0l0 -6.234375q0 -0.75 0.375 -1.125q0.390625 -0.390625 1.109375 -0.390625q0.71875 0 1.109375 0.390625q0.40625 0.375 0.40625 1.125l0 14.25q0 0.75 -0.390625 1.140625q-0.375 0.390625 -1.09375 0.390625q-0.734375 0 -1.125 -0.390625q-0.375 -0.390625 -0.375 -1.140625l0 -1.875l0.265625 0.71875q-0.359375 1.25 -1.46875 2.0q-1.09375 0.734375 -2.578125 0.734375zm0.828125 -2.28125q0.890625 0 1.5625 -0.421875q0.671875 -0.4375 1.046875 -1.28125q0.375 -0.859375 0.375 -2.125q0 -1.921875 -0.828125 -2.875q-0.8125 -0.953125 -2.15625 -0.953125q-0.875 0 -1.546875 0.421875q-0.671875 0.421875 -1.046875 1.28125q-0.375 0.84375 -0.375 2.125q0 1.890625 0.8125 2.859375q0.8125 0.96875 2.15625 0.96875zm21.46643 2.234375q-0.75 0 -1.15625 -0.40625q-0.390625 -0.421875 -0.390625 -1.171875l0 -12.96875l-4.671875 0q-0.625 0 -0.984375 -0.34375q-0.34375 -0.34375 -0.34375 -0.9375q0 -0.625 0.34375 -0.953125q0.359375 -0.328125 0.984375 -0.328125l12.4375 0q0.609375 0 0.953125 0.328125q0.359375 0.328125 0.359375 0.953125q0 0.59375 -0.359375 0.9375q-0.34375 0.34375 -0.953125 0.34375l-4.6875 0l0 12.96875q0 0.75 -0.390625 1.171875q-0.375 0.40625 -1.140625 0.40625zm11.802063 -0.015625q-0.71875 0 -1.109375 -0.4375q-0.375 -0.4375 -0.375 -1.203125l0 -8.796875q0 -0.796875 0.375 -1.21875q0.390625 -0.421875 1.109375 -0.421875q0.71875 0 1.109375 0.421875q0.40625 0.421875 0.40625 1.21875l0 8.796875q0 0.765625 -0.390625 1.203125q-0.375 0.4375 -1.125 0.4375zm0 -14.3125q-0.84375 0 -1.3125 -0.40625q-0.46875 -0.421875 -0.46875 -1.171875q0 -0.765625 0.46875 -1.171875q0.46875 -0.40625 1.3125 -0.40625q0.859375 0 1.3125 0.40625q0.46875 0.40625 0.46875 1.171875q0 0.75 -0.46875 1.171875q-0.453125 0.40625 -1.3125 0.40625zm6.16687 14.328125q-0.71875 0 -1.109375 -0.390625q-0.375 -0.390625 -0.375 -1.140625l0 -9.078125q0 -0.734375 0.375 -1.109375q0.390625 -0.390625 1.09375 -0.390625q0.6875 0 1.0625 0.390625q0.390625 0.375 0.390625 1.109375l0 1.765625l-0.265625 -0.734375q0.484375 -1.1875 1.484375 -1.875q1.015625 -0.703125 2.40625 -0.703125q1.421875 0 2.328125 0.671875q0.921875 0.671875 1.28125 2.0625l-0.34375 0q0.484375 -1.28125 1.578125 -2.0q1.109375 -0.734375 2.546875 -0.734375q1.34375 0 2.21875 0.53125q0.875 0.515625 1.3125 1.59375q0.4375 1.0625 0.4375 2.6875l0 5.8125q0 0.75 -0.40625 1.140625q-0.390625 0.390625 -1.109375 0.390625q-0.71875 0 -1.109375 -0.390625q-0.375 -0.390625 -0.375 -1.140625l0 -5.6875q0 -1.34375 -0.453125 -1.96875q-0.4375 -0.625 -1.5 -0.625q-1.171875 0 -1.84375 0.828125q-0.671875 0.828125 -0.671875 2.296875l0 5.15625q0 0.75 -0.390625 1.140625q-0.375 0.390625 -1.09375 0.390625q-0.71875 0 -1.125 -0.390625q-0.390625 -0.390625 -0.390625 -1.140625l0 -5.6875q0 -1.34375 -0.453125 -1.96875q-0.4375 -0.625 -1.46875 -0.625q-1.171875 0 -1.84375 0.828125q-0.671875 0.828125 -0.671875 2.296875l0 5.15625q0 1.53125 -1.515625 1.53125zm25.297974 0.046875q-1.984375 0 -3.4375 -0.734375q-1.4375 -0.75 -2.21875 -2.109375q-0.78125 -1.375 -0.78125 -3.25q0 -1.828125 0.75 -3.1875q0.765625 -1.375 2.09375 -2.140625q1.34375 -0.78125 3.046875 -0.78125q1.25 0 2.234375 0.40625q1.0 0.40625 1.703125 1.171875q0.71875 0.765625 1.078125 1.859375q0.375 1.09375 0.375 2.453125q0 0.4375 -0.296875 0.671875q-0.296875 0.21875 -0.84375 0.21875l-7.703125 0l0 -1.71875l6.734375 0l-0.375 0.359375q0 -1.109375 -0.328125 -1.84375q-0.328125 -0.75 -0.9375 -1.140625q-0.609375 -0.40625 -1.53125 -0.40625q-1.0 0 -1.71875 0.46875q-0.703125 0.46875 -1.078125 1.328125q-0.359375 0.84375 -0.359375 2.015625l0 0.171875q0 1.96875 0.921875 2.9375q0.921875 0.96875 2.71875 0.96875q0.625 0 1.40625 -0.15625q0.78125 -0.15625 1.46875 -0.53125q0.515625 -0.296875 0.890625 -0.25q0.390625 0.03125 0.609375 0.28125q0.234375 0.234375 0.28125 0.578125q0.046875 0.34375 -0.140625 0.703125q-0.171875 0.359375 -0.609375 0.625q-0.828125 0.53125 -1.921875 0.78125q-1.09375 0.25 -2.03125 0.25z" fill-rule="nonzero"/><path fill="#000000" fill-opacity="0.0" d="m10.748032 792.3963l62.708664 0l0 43.055115l-62.708664 0z" fill-rule="evenodd"/><path fill="#cccccc" d="m42.09923 819.50385q-2.328125 0 -3.5625 -1.765625q-1.234375 -1.765625 -1.234375 -5.03125q0 -2.203125 0.546875 -3.703125q0.5625 -1.5 1.625 -2.265625q1.078125 -0.765625 2.625 -0.765625q2.3593788 0 3.5781288 1.71875q1.21875 1.71875 1.21875 5.0q0 2.1875 -0.546875 3.703125q-0.546875 1.515625 -1.625 2.3125q-1.0625 0.796875 -2.6250038 0.796875zm0 -1.953125q1.2656288 0 1.8750038 -1.171875q0.609375 -1.1875 0.609375 -3.6875q0 -2.5 -0.609375 -3.625q-0.609375 -1.125 -1.8750038 -1.125q-1.25 0 -1.875 1.125q-0.609375 1.125 -0.609375 3.625q0 2.5 0.609375 3.6875q0.625 1.171875 1.875 1.171875z" fill-rule="nonzero"/><path fill="#000000" fill-opacity="0.0" d="m0 394.47507l62.70866 0l0 43.055115l-62.70866 0z" fill-rule="evenodd"/><path fill="#cccccc" d="m25.863699 421.58255q-0.984375 0 -2.015625 -0.25q-1.015625 -0.265625 -1.875 -0.8125q-0.359375 -0.21875 -0.484375 -0.53125q-0.109375 -0.3125 -0.046875 -0.609375q0.0625 -0.3125 0.265625 -0.53125q0.21875 -0.21875 0.53125 -0.25q0.3125 -0.03125 0.6875 0.171875q0.6875 0.390625 1.390625 0.59375q0.71875 0.203125 1.515625 0.203125q0.78125 0 1.34375 -0.28125q0.5625 -0.28125 0.859375 -0.78125q0.296875 -0.5 0.296875 -1.171875q0 -1.046875 -0.640625 -1.6875q-0.625 -0.65625 -1.734375 -0.65625q-0.59375 0 -1.15625 0.203125q-0.5625 0.203125 -1.09375 0.6875q-0.171875 0.140625 -0.4375 0.28125q-0.25 0.140625 -0.546875 0.140625q-0.46875 0 -0.71875 -0.234375q-0.234375 -0.25 -0.234375 -0.671875l0 -6.109375q0 -0.5 0.265625 -0.765625q0.265625 -0.28125 0.78125 -0.28125l6.125 0q0.515625 0 0.78125 0.25q0.265625 0.25 0.265625 0.75q0 0.453125 -0.265625 0.71875q-0.265625 0.265625 -0.78125 0.265625l-4.84375 0l0 4.171875l-0.609375 0q0.484375 -0.65625 1.28125 -1.0q0.796875 -0.359375 1.75 -0.359375q1.25 0 2.171875 0.53125q0.921875 0.53125 1.4375 1.484375q0.515625 0.9375 0.515625 2.1875q0 1.28125 -0.578125 2.265625q-0.578125 0.96875 -1.65625 1.53125q-1.0625 0.546875 -2.546875 0.546875zm11.084383 0q-2.328125 0 -3.5625 -1.765625q-1.234375 -1.765625 -1.234375 -5.03125q0 -2.203125 0.546875 -3.703125q0.5625 -1.5 1.625 -2.265625q1.078125 -0.765625 2.625 -0.765625q2.359375 0 3.578125 1.71875q1.21875 1.71875 1.21875 5.0q0 2.1875 -0.546875 3.703125q-0.546875 1.515625 -1.625 2.3125q-1.0625 0.796875 -2.625 0.796875zm0 -1.953125q1.265625 0 1.875 -1.171875q0.609375 -1.1875 0.609375 -3.6875q0 -2.5 -0.609375 -3.625q-0.609375 -1.125 -1.875 -1.125q-1.25 0 -1.875 1.125q-0.609375 1.125 -0.609375 3.625q0 2.5 0.609375 3.6875q0.625 1.171875 1.875 1.171875z" fill-rule="nonzero"/><path fill="#000000" fill-opacity="0.0" d="m10.748032 24.401575l62.708664 0l0 43.055122l-62.708664 0z" fill-rule="evenodd"/><path fill="#cccccc" d="m28.217978 51.32157q-0.484375 0 -0.75 -0.265625q-0.265625 -0.28125 -0.265625 -0.734375q0 -0.5 0.265625 -0.734375q0.265625 -0.25 0.75 -0.25l2.09375 0l0 -9.15625l1.15625 0l-2.734375 1.65625q-0.359375 0.21875 -0.671875 0.171875q-0.3125 -0.046875 -0.53125 -0.265625q-0.203125 -0.21875 -0.28125 -0.515625q-0.078125 -0.296875 0.046875 -0.59375q0.125 -0.3125 0.484375 -0.53125l2.5625 -1.546875q0.375 -0.21875 0.75 -0.375q0.375 -0.15625 0.6875 -0.15625q0.3906231 0 0.6562481 0.21875q0.265625 0.203125 0.265625 0.6875l0 10.40625l1.90625 0q0.484375 0 0.75 0.25q0.265625 0.234375 0.265625 0.734375q0 0.484375 -0.265625 0.75q-0.265625 0.25 -0.75 0.25l-6.390623 0zm13.881254 0.1875q-2.328125 0 -3.5625 -1.765625q-1.234375 -1.765625 -1.234375 -5.03125q0 -2.203125 0.546875 -3.703125q0.5625 -1.5 1.625 -2.265625q1.078125 -0.765625 2.625 -0.765625q2.3593788 0 3.5781288 1.71875q1.21875 1.71875 1.21875 5.0q0 2.1875 -0.546875 3.703125q-0.546875 1.515625 -1.625 2.3125q-1.0625 0.796875 -2.6250038 0.796875zm0 -1.953125q1.2656288 0 1.8750038 -1.171875q0.609375 -1.1875 0.609375 -3.6875q0 -2.5 -0.609375 -3.625q-0.609375 -1.125 -1.8750038 -1.125q-1.25 0 -1.875 1.125q-0.609375 1.125 -0.609375 3.625q0 2.5 0.609375 3.6875q0.625 1.171875 1.875 1.171875zm11.19376 1.953125q-2.328125 0 -3.5625 -1.765625q-1.234375 -1.765625 -1.234375 -5.03125q0 -2.203125 0.546875 -3.703125q0.5625 -1.5 1.625 -2.265625q1.078125 -0.765625 2.625 -0.765625q2.359375 0 3.578125 1.71875q1.21875 1.71875 1.21875 5.0q0 2.1875 -0.546875 3.703125q-0.546875 1.515625 -1.625 2.3125q-1.0625 0.796875 -2.625 0.796875zm0 -1.953125q1.265625 0 1.875 -1.171875q0.609375 -1.1875 0.609375 -3.6875q0 -2.5 -0.609375 -3.625q-0.609375 -1.125 -1.875 -1.125q-1.25 0 -1.875 1.125q-0.609375 1.125 -0.609375 3.625q0 2.5 0.609375 3.6875q0.625 1.171875 1.875 1.171875z" fill-rule="nonzero"/><path fill="#91ffe4" fill-opacity="0.6955" d="m245.24792 254.5363c-1.403595 5.8238983 -3.7892609 85.48842 -0.8417816 114.8159c2.9474945 29.327484 9.824844 47.00525 18.526688 61.148956c8.701843 14.143707 24.842224 12.68927 33.684357 23.713379c8.842133 11.024078 15.297974 24.751495 19.36847 42.431152c4.0704956 17.679626 3.650879 65.51892 5.054474 63.64673c1.403595 -1.8721313 4.4901123 -55.535767 3.367096 -74.87967c-1.1230164 -19.343903 -6.5964355 -31.40802 -10.105133 -41.183685c-3.508667 -9.775665 -3.7889404 -9.5668335 -10.946869 -17.470337c-7.157959 -7.9035034 -24.842865 -21.21463 -32.000824 -29.950745c-7.157959 -8.736084 -7.8591003 -12.0660095 -10.946899 -22.465881c-3.0877686 -10.399872 -5.053192 -19.96576 -7.579788 -39.93338c-2.526596 -19.96762 -6.176193 -85.696335 -7.579788 -79.87242z" fill-rule="evenodd"/><path stroke="#000000" stroke-width="1.0" stroke-linejoin="round" stroke-linecap="butt" d="m245.24792 254.5363c-1.403595 5.8238983 -3.7892609 85.48842 -0.8417816 114.8159c2.9474945 29.327484 9.824844 47.00525 18.526688 61.148956c8.701843 14.143707 24.842224 12.68927 33.684357 23.713379c8.842133 11.024078 15.297974 24.751495 19.36847 42.431152c4.0704956 17.679626 3.650879 65.51892 5.054474 63.64673c1.403595 -1.8721313 4.4901123 -55.535767 3.367096 -74.87967c-1.1230164 -19.343903 -6.5964355 -31.40802 -10.105133 -41.183685c-3.508667 -9.775665 -3.7889404 -9.5668335 -10.946869 -17.470337c-7.157959 -7.9035034 -24.842865 -21.21463 -32.000824 -29.950745c-7.157959 -8.736084 -7.8591003 -12.0660095 -10.946899 -22.465881c-3.0877686 -10.399872 -5.053192 -19.96576 -7.579788 -39.93338c-2.526596 -19.96762 -6.176193 -85.696335 -7.579788 -79.87242z" fill-rule="evenodd"/><path fill="#91ffe4" fill-opacity="0.6955" d="m464.34772 123.74437c-0.53341675 11.735168 -1.440033 172.25896 -0.31991577 231.35371c1.1201172 59.094788 3.7337036 94.71542 7.040619 123.215c3.3069153 28.499573 9.440643 25.568848 12.800873 47.78238c3.3602295 22.213501 5.8135986 49.874207 7.360504 85.49866c1.546875 35.62445 1.3874207 132.02039 1.9208069 128.24805c0.53341675 -3.7724 1.7063599 -111.90448 1.279602 -150.88239c-0.42678833 -38.977905 -2.506836 -63.28711 -3.84021 -82.985016c-1.333374 -19.697968 -1.4398804 -19.2771 -4.160095 -35.202667c-2.7201843 -15.925537 -9.440887 -42.747437 -12.161102 -60.350647c-2.7201843 -17.603241 -2.9866333 -24.312988 -4.1600647 -45.268707c-1.1734314 -20.955719 -1.9203491 -40.230927 -2.8805237 -80.46567c-0.96017456 -40.23471 -2.347107 -172.67787 -2.8804932 -160.9427z" fill-rule="evenodd"/><path stroke="#000000" stroke-width="1.0" stroke-linejoin="round" stroke-linecap="butt" d="m464.34772 123.74437c-0.53341675 11.735168 -1.440033 172.25896 -0.31991577 231.35371c1.1201172 59.094788 3.7337036 94.71542 7.040619 123.215c3.3069153 28.499573 9.440643 25.568848 12.800873 47.78238c3.3602295 22.213501 5.8135986 49.874207 7.360504 85.49866c1.546875 35.62445 1.3874207 132.02039 1.9208069 128.24805c0.53341675 -3.7724 1.7063599 -111.90448 1.279602 -150.88239c-0.42678833 -38.977905 -2.506836 -63.28711 -3.84021 -82.985016c-1.333374 -19.697968 -1.4398804 -19.2771 -4.160095 -35.202667c-2.7201843 -15.925537 -9.440887 -42.747437 -12.161102 -60.350647c-2.7201843 -17.603241 -2.9866333 -24.312988 -4.1600647 -45.268707c-1.1734314 -20.955719 -1.9203491 -40.230927 -2.8805237 -80.46567c-0.96017456 -40.23471 -2.347107 -172.67787 -2.8804932 -160.9427z" fill-rule="evenodd"/><path fill="#91ffe4" fill-opacity="0.6955" d="m667.51306 237.01836c-0.53338623 7.768097 -1.4400024 114.02678 -0.31988525 153.14455c1.1201172 39.117798 3.7336426 62.69687 7.0405884 81.562164c3.3068848 18.865265 9.440674 16.925293 12.800903 31.629517c3.3602295 14.704254 5.8135986 33.01425 7.3604736 56.595856c1.546875 23.581604 1.3874512 87.39087 1.9208374 84.89374c0.53338623 -2.4971313 1.7063599 -74.075134 1.279541 -99.87659c-0.4267578 -25.801392 -2.506775 -41.892853 -3.840149 -54.931885c-1.333374 -13.0390625 -1.4398804 -12.760498 -4.160095 -23.302399c-2.7202148 -10.541931 -9.440918 -28.296661 -12.161133 -39.949097c-2.7201538 -11.652466 -2.9866333 -16.093994 -4.160095 -29.965637c-1.1734009 -13.871643 -1.9202881 -26.630829 -2.8804932 -53.26422c-0.96014404 -26.633362 -2.347107 -114.30409 -2.8804932 -106.535995z" fill-rule="evenodd"/><path stroke="#000000" stroke-width="1.0" stroke-linejoin="round" stroke-linecap="butt" d="m667.51306 237.01836c-0.53338623 7.768097 -1.4400024 114.02678 -0.31988525 153.14455c1.1201172 39.117798 3.7336426 62.69687 7.0405884 81.562164c3.3068848 18.865265 9.440674 16.925293 12.800903 31.629517c3.3602295 14.704254 5.8135986 33.01425 7.3604736 56.595856c1.546875 23.581604 1.3874512 87.39087 1.9208374 84.89374c0.53338623 -2.4971313 1.7063599 -74.075134 1.279541 -99.87659c-0.4267578 -25.801392 -2.506775 -41.892853 -3.840149 -54.931885c-1.333374 -13.0390625 -1.4398804 -12.760498 -4.160095 -23.302399c-2.7202148 -10.541931 -9.440918 -28.296661 -12.161133 -39.949097c-2.7201538 -11.652466 -2.9866333 -16.093994 -4.160095 -29.965637c-1.1734009 -13.871643 -1.9202881 -26.630829 -2.8804932 -53.26422c-0.96014404 -26.633362 -2.347107 -114.30409 -2.8804932 -106.535995z" fill-rule="evenodd"/><path fill="#91ffe4" fill-opacity="0.6955" d="m827.88745 323.03714c-0.77734375 2.434845 -6.494751 52.00482 -1.4435425 69.84515c5.0511475 17.840332 14.028381 28.463684 31.75061 37.19687c17.722229 8.733154 59.42871 8.496063 74.5827 15.202087c15.153992 6.706024 12.174072 14.408569 16.341187 25.034119c4.1671143 10.625549 6.835083 38.15747 8.661438 38.719147c1.826355 0.56170654 2.491272 -24.06604 2.2965698 -35.34906c-0.19464111 -11.283051 1.9694214 -24.702118 -3.4645386 -32.34909c-5.43396 -7.6469727 -16.116394 -9.569122 -29.1391 -13.532806c-13.022766 -3.963684 -36.402466 -6.23053 -48.997375 -10.249359c-12.594971 -4.018799 -18.677612 -7.3167114 -26.572205 -13.863495c-7.8945923 -6.546814 -16.792664 -11.975067 -20.795288 -25.417328c-4.0026245 -13.442261 -2.4431152 -57.67105 -3.220459 -55.236237z" fill-rule="evenodd"/><path stroke="#000000" stroke-width="1.0" stroke-linejoin="round" stroke-linecap="butt" d="m827.88745 323.03714c-0.77734375 2.434845 -6.494751 52.00482 -1.4435425 69.84515c5.0511475 17.840332 14.028381 28.463684 31.75061 37.19687c17.722229 8.733154 59.42871 8.496063 74.5827 15.202087c15.153992 6.706024 12.174072 14.408569 16.341187 25.034119c4.1671143 10.625549 6.835083 38.15747 8.661438 38.719147c1.826355 0.56170654 2.491272 -24.06604 2.2965698 -35.34906c-0.19464111 -11.283051 1.9694214 -24.702118 -3.4645386 -32.34909c-5.43396 -7.6469727 -16.116394 -9.569122 -29.1391 -13.532806c-13.022766 -3.963684 -36.402466 -6.23053 -48.997375 -10.249359c-12.594971 -4.018799 -18.677612 -7.3167114 -26.572205 -13.863495c-7.8945923 -6.546814 -16.792664 -11.975067 -20.795288 -25.417328c-4.0026245 -13.442261 -2.4431152 -57.67105 -3.220459 -55.236237z" fill-rule="evenodd"/><path fill="#91ffe4" fill-opacity="0.6955" d="m1076.3688 220.56776c-0.41809082 5.25264 -3.49292 112.18999 -0.7763672 150.67693c2.7165527 38.48697 7.5445557 61.404724 17.075562 80.24478c9.531006 18.840027 31.960693 18.328552 40.110474 32.79547c8.149902 14.466949 6.547241 31.083649 8.78833 54.006134c2.2410889 22.922485 3.36438 85.98529 4.658081 83.52881c1.2937012 -2.456421 4.138916 -72.88202 3.104004 -98.26752c-1.0349121 -25.38559 -6.079468 -41.217102 -9.3133545 -54.045776c-3.2338867 -12.828674 -4.0163574 -15.420074 -10.089722 -22.92627c-6.0734863 -7.506195 -19.57727 -13.441132 -26.35083 -22.1109c-6.7735596 -8.669769 -10.0448 -15.784332 -14.290527 -29.907776c-4.2457275 -14.123413 -9.031128 -25.833801 -11.183716 -54.832764c-2.152588 -28.998993 -1.3138428 -124.41376 -1.7319336 -119.16112z" fill-rule="evenodd"/><path stroke="#000000" stroke-width="1.0" stroke-linejoin="round" stroke-linecap="butt" d="m1076.3688 220.56776c-0.41809082 5.25264 -3.49292 112.18999 -0.7763672 150.67693c2.7165527 38.48697 7.5445557 61.404724 17.075562 80.24478c9.531006 18.840027 31.960693 18.328552 40.110474 32.79547c8.149902 14.466949 6.547241 31.083649 8.78833 54.006134c2.2410889 22.922485 3.36438 85.98529 4.658081 83.52881c1.2937012 -2.456421 4.138916 -72.88202 3.104004 -98.26752c-1.0349121 -25.38559 -6.079468 -41.217102 -9.3133545 -54.045776c-3.2338867 -12.828674 -4.0163574 -15.420074 -10.089722 -22.92627c-6.0734863 -7.506195 -19.57727 -13.441132 -26.35083 -22.1109c-6.7735596 -8.669769 -10.0448 -15.784332 -14.290527 -29.907776c-4.2457275 -14.123413 -9.031128 -25.833801 -11.183716 -54.832764c-2.152588 -28.998993 -1.3138428 -124.41376 -1.7319336 -119.16112z" fill-rule="evenodd"/><path fill="#91ffe4" fill-opacity="0.6955" d="m1322.9829 243.46935c-1.7086182 2.1640472 -8.970703 93.418625 -8.223022 124.58006c0.7475586 31.161407 4.942627 41.68985 12.708618 62.388428c7.765991 20.698608 24.066895 51.02014 33.887085 61.80316c9.8203125 10.78302 17.788818 -18.273834 25.03418 2.8950195c7.2453613 21.168854 14.759399 118.76993 18.438354 124.11813c3.678833 5.3482056 4.8477783 -68.25464 3.6351318 -92.02887c-1.2126465 -23.774323 -7.1220703 -38.60196 -10.910767 -50.61682c-3.7886963 -12.014893 -4.7055664 -14.442261 -11.821533 -21.472443c-7.1158447 -7.030182 -22.937866 -12.588806 -30.874023 -20.70868c-7.936157 -8.119843 -11.768555 -14.783447 -16.742798 -28.010498c-4.974121 -13.22702 -10.580444 -24.193787 -13.102295 -51.351685c-2.5218506 -27.157928 -0.32019043 -113.75986 -2.0289307 -111.59581z" fill-rule="evenodd"/><path stroke="#000000" stroke-width="1.0" stroke-linejoin="round" stroke-linecap="butt" d="m1322.9829 243.46935c-1.7086182 2.1640472 -8.970703 93.418625 -8.223022 124.58006c0.7475586 31.161407 4.942627 41.68985 12.708618 62.388428c7.765991 20.698608 24.066895 51.02014 33.887085 61.80316c9.8203125 10.78302 17.788818 -18.273834 25.03418 2.8950195c7.2453613 21.168854 14.759399 118.76993 18.438354 124.11813c3.678833 5.3482056 4.8477783 -68.25464 3.6351318 -92.02887c-1.2126465 -23.774323 -7.1220703 -38.60196 -10.910767 -50.61682c-3.7886963 -12.014893 -4.7055664 -14.442261 -11.821533 -21.472443c-7.1158447 -7.030182 -22.937866 -12.588806 -30.874023 -20.70868c-7.936157 -8.119843 -11.768555 -14.783447 -16.742798 -28.010498c-4.974121 -13.22702 -10.580444 -24.193787 -13.102295 -51.351685c-2.5218506 -27.157928 -0.32019043 -113.75986 -2.0289307 -111.59581z" fill-rule="evenodd"/></g></svg>