<svg version="1.1" viewBox="0.0 0.0 1600.0 900.0" fill="none" stroke="none" stroke-linecap="square" stroke-miterlimit="10" xmlns:xlink="http://www.w3.org/1999/xlink" xmlns="http://www.w3.org/2000/svg"><clipPath id="p.0"><path d="m0 0l1600.0 0l0 900.0l-1600.0 0l0 -900.0z" clip-rule="nonzero"/></clipPath><g clip-path="url(#p.0)"><path fill="#000000" fill-opacity="0.0" d="m0 0l1600.0 0l0 900.0l-1600.0 0z" fill-rule="evenodd"/><path fill="#060116" d="m0 -2.0l1600.0 0l0 900.0l-1600.0 0z" fill-rule="evenodd"/><path stroke="#000000" stroke-width="1.0" stroke-linejoin="round" stroke-linecap="butt" d="m0 -2.0l1600.0 0l0 900.0l-1600.0 0z" fill-rule="evenodd"/><path fill="#000000" fill-opacity="0.0" d="m856.04724 229.38487l0 0c0 -46.262375 37.50305 -83.76546 83.76544 -83.76546l472.75262 0c22.215942 0 43.521973 8.825272 59.23108 24.534348c15.709106 15.709061 24.534302 37.015137 24.534302 59.23111l0 335.05176c0 46.26239 -37.50305 83.76544 -83.76538 83.76544l-472.75262 0l0 0c-46.26239 0 -83.76544 -37.50305 -83.76544 -83.76544z" fill-rule="evenodd"/><path stroke="#cc0000" stroke-width="8.0" stroke-linejoin="round" stroke-linecap="butt" stroke-dasharray="32.0,24.0" d="m856.04724 229.38487l0 0c0 -46.262375 37.50305 -83.76546 83.76544 -83.76546l472.75262 0c22.215942 0 43.521973 8.825272 59.23108 24.534348c15.709106 15.709061 24.534302 37.015137 24.534302 59.23111l0 335.05176c0 46.26239 -37.50305 83.76544 -83.76538 83.76544l-472.75262 0l0 0c-46.26239 0 -83.76544 -37.50305 -83.76544 -83.76544z" fill-rule="evenodd"/><path fill="#000000" fill-opacity="0.0" d="m68.0 822.0l1460.0 0" fill-rule="evenodd"/><path stroke="#cccccc" stroke-width="3.0" stroke-linejoin="round" stroke-linecap="butt" d="m68.0 822.0l1460.0 0" fill-rule="evenodd"/><path fill="#000000" fill-opacity="0.0" d="m277.2861 824.04987l0 11.40155" fill-rule="evenodd"/><path stroke="#cccccc" stroke-width="3.0" stroke-linejoin="round" stroke-linecap="butt" d="m277.2861 824.04987l0 11.40155" fill-rule="evenodd"/><path fill="#000000" fill-opacity="0.0" d="m68.0 46.0l0 778.01575" fill-rule="evenodd"/><path stroke="#cccccc" stroke-width="3.0" stroke-linejoin="round" stroke-linecap="butt" d="m68.0 46.0l0 778.01575" fill-rule="evenodd"/><path fill="#000000" fill-opacity="0.0" d="m68.0 417.1706l-11.401573 0" fill-rule="evenodd"/><path stroke="#cccccc" stroke-width="3.0" stroke-linejoin="round" stroke-linecap="butt" d="m68.0 417.1706l-11.401573 0" fill-rule="evenodd"/><path fill="#000000" fill-opacity="0.0" d="m695.8583 824.04987l0 11.40155" fill-rule="evenodd"/><path stroke="#cccccc" stroke-width="3.0" stroke-linejoin="round" stroke-linecap="butt" d="m695.8583 824.04987l0 11.40155" fill-rule="evenodd"/><path fill="#000000" fill-opacity="0.0" d="m486.57217 824.04987l0 11.40155" fill-rule="evenodd"/><path stroke="#cccccc" stroke-width="3.0" stroke-linejoin="round" stroke-linecap="butt" d="m486.57217 824.04987l0 11.40155" fill-rule="evenodd"/><path fill="#000000" fill-opacity="0.0" d="m1113.9291 824.04987l0 11.40155" fill-rule="evenodd"/><path stroke="#cccccc" stroke-width="3.0" stroke-linejoin="round" stroke-linecap="butt" d="m1113.9291 824.04987l0 11.40155" fill-rule="evenodd"/><path fill="#000000" fill-opacity="0.0" d="m904.64307 824.04987l0 11.40155" fill-rule="evenodd"/><path stroke="#cccccc" stroke-width="3.0" stroke-linejoin="round" stroke-linecap="butt" d="m904.64307 824.04987l0 11.40155" fill-rule="evenodd"/><path fill="#000000" fill-opacity="0.0" d="m1323.2152 824.04987l0 11.40155" fill-rule="evenodd"/><path stroke="#cccccc" stroke-width="3.0" stroke-linejoin="round" stroke-linecap="butt" d="m1323.2152 824.04987l0 11.40155" fill-rule="evenodd"/><path fill="#91ffe4" fill-opacity="0.6955" d="m272.87418 315.99847c2.2452087 -30.271942 8.9808655 -26.549377 13.471283 -26.358643c4.4904175 0.19076538 11.4183655 -2.7687988 13.471252 27.503143c2.0528564 30.271942 1.2837524 122.90161 -1.1540527 154.12848c-2.4378052 31.226837 -9.174744 33.232635 -13.472839 33.232635c-4.298065 0 -10.263031 -1.815033 -12.315643 -33.232635c-2.0525818 -31.417603 -2.2452087 -125.00104 0 -155.27298z" fill-rule="evenodd"/><path fill="#91ffe4" fill-opacity="0.6955" d="m482.1616 315.99847c2.2452087 -30.271942 8.980835 -26.549377 13.471252 -26.358643c4.4904175 0.19076538 11.418396 -2.7687988 13.471252 27.503143c2.052887 30.271942 1.283783 122.90161 -1.1540527 154.12848c-2.4378052 31.226837 -9.174744 33.232635 -13.472809 33.232635c-4.2980957 0 -10.263031 -1.815033 -12.315643 -33.232635c-2.0526123 -31.417603 -2.2452087 -125.00104 0 -155.27298z" fill-rule="evenodd"/><path fill="#91ffe4" fill-opacity="0.6955" d="m706.344 315.99847c2.2452393 -30.271942 8.980835 -26.549377 13.471252 -26.358643c4.4904175 0.19076538 11.418396 -2.7687988 13.471252 27.503143c2.0529175 30.271942 1.2838135 122.90161 -1.1540527 154.12848c-2.4378052 31.226837 -9.174744 33.232635 -13.472778 33.232635c-4.2980957 0 -10.263062 -1.815033 -12.315674 -33.232635c-2.0526123 -31.417603 -2.2451782 -125.00104 0 -155.27298z" fill-rule="evenodd"/><path fill="#91ffe4" fill-opacity="0.6955" d="m915.3116 424.39737c1.8026733 -12.864136 7.2105713 -11.282227 10.815857 -11.201172c3.6052856 0.081085205 9.167664 -1.1766052 10.815857 11.6875305c1.6481934 12.864105 1.0307007 52.227295 -0.9265747 65.49722c-1.9572754 13.269928 -7.366272 14.122284 -10.817078 14.122284c-3.4508667 0 -8.240051 -0.77130127 -9.888062 -14.122284c-1.6479492 -13.350983 -1.8026123 -53.119476 0 -65.98358z" fill-rule="evenodd"/><path fill="#91ffe4" fill-opacity="0.6955" d="m1135.6874 526.82886c2.2003174 -5.3744507 6.93042 -58.15222 17.328003 -87.805786c10.397705 -29.653534 42.960205 -95.48993 45.05774 -90.11548c2.0975342 5.3744507 -24.814941 96.429565 -32.472412 122.36221c-7.6574707 25.932617 -9.174561 33.23358 -13.472412 33.23358c-4.2979736 0 -9.574829 -36.9545 -12.314941 -33.23358c-2.7402344 3.7209167 -6.326416 60.933502 -4.1259766 55.55905z" fill-rule="evenodd"/><path fill="#91ffe4" fill-opacity="0.6955" d="m1371.6978 422.71808c2.0892334 -18.553497 -8.914307 -44.292633 -8.189697 -49.78003c0.7246094 -5.4874268 12.426758 -0.17428589 12.537476 16.85556c0.11071777 17.029816 -9.604492 66.184326 -11.873169 85.323395c-2.2686768 19.139038 0.46081543 27.987213 -1.7390137 29.510895c-2.1999512 1.5236511 -13.004395 -6.7172546 -11.460327 -20.368866c1.5440674 -13.651642 18.63562 -42.987457 20.724731 -61.540955z" fill-rule="evenodd"/><path fill="#000000" fill-opacity="0.0" d="m10.748032 357.66403l0 -227.27557l31.02362 0l0 227.27557z" fill-rule="evenodd"/><path fill="#cccccc" d="m42.975533 345.22653q0 0.75 -0.40625 1.171875q-0.421875 0.421875 -1.21875 0.421875l-13.84375 0q-0.796875 0 -1.21875 -0.421875q-0.421875 -0.421875 -0.421875 -1.21875l0 -8.375q0 -0.625 0.3125 -0.9375q0.3125 -0.3125 0.890625 -0.3125q0.59375 0 0.921875 0.3125q0.328125 0.3125 0.328125 0.9375l0 6.9375l4.765625 0l0 -6.4375q0 -0.59375 0.3125 -0.90625q0.3125 -0.328125 0.890625 -0.328125q0.609375 0 0.9375 0.328125q0.3125 0.3125 0.3125 0.90625l0 6.4375l5.8125 0q1.625 0 1.625 1.484375zm0 -12.904205q0 0.734375 -0.390625 1.140625q-0.390625 0.390625 -1.140625 0.390625l-9.078125 0q-0.734375 0 -1.109375 -0.375q-0.390625 -0.390625 -0.390625 -1.09375q0 -0.6875 0.390625 -1.0625q0.375 -0.390625 1.109375 -0.390625l1.515625 0l0 0.234375q-1.4375 -0.328125 -2.171875 -1.3125q-0.75 -0.984375 -0.890625 -2.625q-0.0625 -0.5 0.25 -0.796875q0.296875 -0.296875 0.921875 -0.359375q0.59375 -0.046875 0.96875 0.28125q0.375 0.328125 0.4375 0.96875l0.046875 0.53125q0.15625 1.46875 0.90625 2.21875q0.75 0.734375 2.125 0.734375l4.96875 0q0.75 0 1.140625 0.390625q0.390625 0.375 0.390625 1.125zm0.046875 -13.465973q0 1.984375 -0.734375 3.4375q-0.75 1.4375 -2.109375 2.21875q-1.375 0.78125 -3.25 0.78125q-1.828125 0 -3.1875 -0.75q-1.375 -0.765625 -2.140625 -2.09375q-0.78125 -1.34375 -0.78125 -3.046875q0 -1.25 0.40625 -2.234375q0.40625 -1.0 1.171875 -1.703125q0.765625 -0.71875 1.859375 -1.078125q1.09375 -0.375 2.453125 -0.375q0.4375 0 0.671875 0.296875q0.21875 0.296875 0.21875 0.84375l0 7.703125l-1.71875 0l0 -6.734375l0.359375 0.375q-1.109375 0 -1.84375 0.328125q-0.75 0.328125 -1.140625 0.9375q-0.40625 0.609375 -0.40625 1.53125q0 1.0 0.46875 1.71875q0.46875 0.703125 1.328125 1.078125q0.84375 0.359375 2.015625 0.359375l0.171875 0q1.96875 0 2.9375 -0.921875q0.96875 -0.921875 0.96875 -2.71875q0 -0.625 -0.15625 -1.40625q-0.15625 -0.78125 -0.53125 -1.46875q-0.296875 -0.515625 -0.25 -0.890625q0.03125 -0.390625 0.28125 -0.609375q0.234375 -0.234375 0.578125 -0.28125q0.34375 -0.046875 0.703125 0.140625q0.359375 0.171875 0.625 0.609375q0.53125 0.828125 0.78125 1.921875q0.25 1.09375 0.25 2.03125zm4.28125 -16.99234q0 0.71875 -0.390625 1.109375q-0.375 0.375 -1.125 0.375l-5.40625 0l0 -0.265625q1.1875 0.390625 1.921875 1.484375q0.71875 1.09375 0.71875 2.546875q0 1.546875 -0.734375 2.71875q-0.75 1.15625 -2.125 1.8125q-1.390625 0.640625 -3.25 0.640625q-1.90625 0 -3.25 -0.640625q-1.359375 -0.65625 -2.09375 -1.8125q-0.75 -1.171875 -0.75 -2.71875q0 -1.484375 0.75 -2.578125q0.734375 -1.109375 1.953125 -1.46875l0.71875 0.265625l-1.875 0q-0.734375 0 -1.109375 -0.375q-0.390625 -0.390625 -0.390625 -1.125q0 -0.71875 0.390625 -1.09375q0.375 -0.390625 1.109375 -0.390625l13.421875 0q0.75 0 1.125 0.40625q0.390625 0.390625 0.390625 1.109375zm-6.5625 4.421875q0 -0.890625 -0.421875 -1.5625q-0.4375 -0.671875 -1.28125 -1.046875q-0.859375 -0.375 -2.125 -0.375q-1.921875 0 -2.875 0.828125q-0.953125 0.8125 -0.953125 2.15625q0 0.875 0.421875 1.546875q0.421875 0.671875 1.28125 1.046875q0.84375 0.375 2.125 0.375q1.890625 0 2.859375 -0.8125q0.96875 -0.8125 0.96875 -2.15625zm2.28125 -13.306213q0 1.46875 -0.53125 2.4375q-0.546875 0.953125 -1.625 1.421875q-1.078125 0.46875 -2.6875 0.46875l-5.8125 0q-0.765625 0 -1.125 -0.375q-0.375 -0.390625 -0.375 -1.109375q0 -0.734375 0.375 -1.125q0.359375 -0.390625 1.125 -0.390625l5.859375 0q1.25 0 1.859375 -0.5q0.59375 -0.515625 0.59375 -1.609375q0 -1.203125 -0.828125 -1.96875q-0.828125 -0.78125 -2.203125 -0.78125l-5.28125 0q-0.765625 0 -1.125 -0.375q-0.375 -0.390625 -0.375 -1.109375q0 -0.71875 0.375 -1.109375q0.359375 -0.40625 1.125 -0.40625l9.078125 0q1.53125 0 1.53125 1.46875q0 0.703125 -0.390625 1.09375q-0.390625 0.375 -1.140625 0.375l-1.828125 0l0.71875 -0.34375q1.296875 0.515625 2.0 1.53125q0.6875 1.015625 0.6875 2.40625zm0 -15.427216q0 1.984375 -0.734375 3.4375q-0.75 1.4375 -2.109375 2.21875q-1.375 0.78125 -3.25 0.78125q-1.828125 0 -3.1875 -0.75q-1.375 -0.765625 -2.140625 -2.09375q-0.78125 -1.34375 -0.78125 -3.046875q0 -1.25 0.40625 -2.234375q0.40625 -1.0 1.171875 -1.703125q0.765625 -0.71875 1.859375 -1.078125q1.09375 -0.375 2.453125 -0.375q0.4375 0 0.671875 0.296875q0.21875 0.296875 0.21875 0.84375l0 7.703125l-1.71875 0l0 -6.734375l0.359375 0.375q-1.109375 0 -1.84375 0.328125q-0.75 0.328125 -1.140625 0.9375q-0.40625 0.609375 -0.40625 1.53125q0 1.0 0.46875 1.71875q0.46875 0.703125 1.328125 1.078125q0.84375 0.359375 2.015625 0.359375l0.171875 0q1.96875 0 2.9375 -0.921875q0.96875 -0.921875 0.96875 -2.71875q0 -0.625 -0.15625 -1.40625q-0.15625 -0.78125 -0.53125 -1.46875q-0.296875 -0.515625 -0.25 -0.890625q0.03125 -0.390625 0.28125 -0.609375q0.234375 -0.234375 0.578125 -0.28125q0.34375 -0.046875 0.703125 0.140625q0.359375 0.171875 0.625 0.609375q0.53125 0.828125 0.78125 1.921875q0.25 1.09375 0.25 2.03125zm-0.046875 -8.71109q0 0.71875 -0.390625 1.109375q-0.390625 0.375 -1.140625 0.375l-9.078125 0q-0.734375 0 -1.109375 -0.375q-0.390625 -0.390625 -0.390625 -1.09375q0 -0.6875 0.390625 -1.0625q0.375 -0.390625 1.109375 -0.390625l1.640625 0l-0.609375 0.265625q-1.265625 -0.53125 -1.921875 -1.640625q-0.65625 -1.125 -0.65625 -2.546875q0 -1.40625 0.53125 -2.3125q0.515625 -0.921875 1.59375 -1.375q1.0625 -0.453125 2.6875 -0.453125l5.8125 0q0.75 0 1.140625 0.390625q0.390625 0.375 0.390625 1.09375q0 0.71875 -0.390625 1.125q-0.390625 0.390625 -1.140625 0.390625l-5.671875 0q-1.359375 0 -1.984375 0.515625q-0.625 0.515625 -0.625 1.59375q0 1.3125 0.828125 2.09375q0.828125 0.78125 2.203125 0.78125l5.25 0q1.53125 0 1.53125 1.515625zm0.046875 -17.977448q0 1.84375 -0.75 3.21875q-0.75 1.359375 -2.140625 2.109375q-1.40625 0.75 -3.265625 0.75q-1.421875 0 -2.53125 -0.421875q-1.125 -0.421875 -1.90625 -1.21875q-0.78125 -0.796875 -1.1875 -1.921875q-0.421875 -1.125 -0.421875 -2.515625q0 -0.796875 0.21875 -1.71875q0.203125 -0.921875 0.703125 -1.734375q0.25 -0.390625 0.59375 -0.5q0.328125 -0.125 0.671875 -0.046875q0.34375 0.0625 0.609375 0.296875q0.25 0.21875 0.3125 0.5625q0.046875 0.328125 -0.171875 0.734375q-0.3125 0.53125 -0.453125 1.09375q-0.15625 0.546875 -0.15625 1.046875q0 0.796875 0.25 1.40625q0.25 0.59375 0.71875 1.015625q0.46875 0.40625 1.171875 0.625q0.6875 0.21875 1.59375 0.21875q1.78125 0 2.796875 -0.84375q1.015625 -0.859375 1.015625 -2.421875q0 -0.5 -0.140625 -1.03125q-0.140625 -0.546875 -0.453125 -1.109375q-0.21875 -0.40625 -0.140625 -0.71875q0.0625 -0.328125 0.328125 -0.546875q0.25 -0.21875 0.59375 -0.265625q0.34375 -0.046875 0.6875 0.09375q0.328125 0.125 0.546875 0.484375q0.484375 0.796875 0.6875 1.6875q0.21875 0.875 0.21875 1.671875zm4.28125 -9.066849q0 0.515625 -0.28125 0.859375q-0.28125 0.328125 -0.734375 0.390625q-0.453125 0.0625 -0.953125 -0.15625l-3.625 -1.625l1.25 0l-10.109375 4.359375q-0.53125 0.21875 -0.984375 0.15625q-0.453125 -0.078125 -0.71875 -0.453125q-0.28125 -0.375 -0.28125 -1.015625q0 -0.546875 0.25 -0.875q0.25 -0.34375 0.9375 -0.609375l8.09375 -3.25l0 0.71875l-8.109375 -3.3125q-0.671875 -0.25 -0.921875 -0.609375q-0.25 -0.359375 -0.25 -0.96875q0 -0.53125 0.28125 -0.84375q0.265625 -0.3125 0.71875 -0.375q0.4375 -0.078125 0.96875 0.171875l13.3125 5.828125q0.671875 0.3125 0.90625 0.671875q0.25 0.359375 0.25 0.9375zm-0.609375 -19.79982q-2.34375 1.484375 -4.9375 2.140625q-2.609375 0.65625 -5.28125 0.65625q-1.78125 0 -3.53125 -0.28125q-1.75 -0.28125 -3.4375 -0.90625q-1.6875 -0.625 -3.25 -1.609375q-0.4375 -0.265625 -0.546875 -0.703125q-0.109375 -0.453125 0.0625 -0.84375q0.171875 -0.40625 0.625 -0.59375q0.4375 -0.1875 1.109375 0.046875q1.53125 0.578125 3.015625 0.953125q1.46875 0.375 2.9375 0.5625q1.453125 0.171875 3.015625 0.171875q1.5625 0 3.03125 -0.1875q1.453125 -0.203125 2.921875 -0.578125q1.46875 -0.390625 3.015625 -0.921875q0.6875 -0.234375 1.125 -0.046875q0.4375 0.1875 0.609375 0.59375q0.171875 0.390625 0.0625 0.84375q-0.109375 0.4375 -0.546875 0.703125zm-3.71875 -6.43573q0 0.71875 -0.390625 1.109375q-0.390625 0.375 -1.140625 0.375l-14.25 0q-0.75 0 -1.125 -0.375q-0.390625 -0.390625 -0.390625 -1.109375q0 -0.71875 0.390625 -1.109375q0.375 -0.40625 1.125 -0.40625l8.84375 0l0 -0.046875l-4.171875 -3.953125q-0.484375 -0.484375 -0.734375 -0.84375q-0.265625 -0.359375 -0.265625 -0.984375q0 -0.625 0.328125 -0.9375q0.3125 -0.328125 0.765625 -0.328125q0.453125 0 0.921875 0.421875l4.40625 4.171875l-1.25 0l4.953125 -4.578125q0.453125 -0.4375 0.921875 -0.390625q0.46875 0.03125 0.765625 0.390625q0.296875 0.359375 0.296875 0.90625q0 0.671875 -0.265625 1.078125q-0.265625 0.390625 -0.78125 0.875l-4.375 4.171875l0 0.046875l3.890625 0q1.53125 0 1.53125 1.515625zm0 -13.207718q0 0.75 -0.40625 1.15625q-0.421875 0.390625 -1.171875 0.390625l-14.140625 0q-0.765625 0 -1.171875 -0.390625q-0.40625 -0.40625 -0.40625 -1.15625q0 -0.734375 0.40625 -1.125q0.40625 -0.40625 1.171875 -0.40625l5.671875 0l0 -8.703125l-5.671875 0q-0.765625 0 -1.171875 -0.390625q-0.40625 -0.40625 -0.40625 -1.15625q0 -0.734375 0.40625 -1.125q0.40625 -0.40625 1.171875 -0.40625l14.140625 0q0.75 0 1.171875 0.40625q0.40625 0.390625 0.40625 1.125q0 0.75 -0.40625 1.15625q-0.421875 0.390625 -1.171875 0.390625l-5.90625 0l0 8.703125l5.90625 0q0.75 0 1.171875 0.390625q0.40625 0.375 0.40625 1.140625zm-0.1875 -17.442566q0 0.453125 -0.21875 0.765625q-0.234375 0.296875 -0.59375 0.390625q-0.359375 0.09375 -0.78125 -0.015625q-0.421875 -0.109375 -0.8125 -0.4375l-7.796875 -6.21875l0.71875 0l0 5.65625q0 0.5625 -0.296875 0.859375q-0.296875 0.296875 -0.828125 0.296875q-0.546875 0 -0.828125 -0.296875q-0.296875 -0.296875 -0.296875 -0.859375l0 -7.09375q0 -0.53125 0.234375 -0.859375q0.21875 -0.34375 0.578125 -0.453125q0.359375 -0.109375 0.765625 -0.015625q0.40625 0.09375 0.765625 0.4375l7.921875 6.328125l-0.78125 0l0 -6.0q0 -1.140625 1.125 -1.140625q0.53125 0 0.828125 0.296875q0.296875 0.296875 0.296875 0.84375l0 7.515625zm3.90625 -12.485336q0.4375 0.265625 0.546875 0.71875q0.109375 0.4375 -0.078125 0.84375q-0.171875 0.40625 -0.609375 0.59375q-0.421875 0.171875 -1.109375 -0.0625q-1.546875 -0.59375 -3.015625 -0.953125q-1.46875 -0.359375 -2.921875 -0.53125q-1.46875 -0.1875 -3.03125 -0.1875q-1.5625 0 -3.015625 0.1875q-1.46875 0.1875 -2.9375 0.5625q-1.46875 0.375 -3.015625 0.921875q-0.671875 0.234375 -1.109375 0.046875q-0.453125 -0.1875 -0.625 -0.59375q-0.171875 -0.40625 -0.0625 -0.84375q0.109375 -0.4375 0.546875 -0.703125q2.328125 -1.453125 4.953125 -2.125q2.609375 -0.671875 5.265625 -0.671875q1.78125 0 3.53125 0.296875q1.75 0.296875 3.4375 0.90625q1.703125 0.609375 3.25 1.59375z" fill-rule="nonzero"/><path fill="#000000" fill-opacity="0.0" d="m10.748032 792.3963l62.708664 0l0 43.055115l-62.708664 0z" fill-rule="evenodd"/><path fill="#cccccc" d="m42.09923 819.50385q-2.328125 0 -3.5625 -1.765625q-1.234375 -1.765625 -1.234375 -5.03125q0 -2.203125 0.546875 -3.703125q0.5625 -1.5 1.625 -2.265625q1.078125 -0.765625 2.625 -0.765625q2.3593788 0 3.5781288 1.71875q1.21875 1.71875 1.21875 5.0q0 2.1875 -0.546875 3.703125q-0.546875 1.515625 -1.625 2.3125q-1.0625 0.796875 -2.6250038 0.796875zm0 -1.953125q1.2656288 0 1.8750038 -1.171875q0.609375 -1.1875 0.609375 -3.6875q0 -2.5 -0.609375 -3.625q-0.609375 -1.125 -1.8750038 -1.125q-1.25 0 -1.875 1.125q-0.609375 1.125 -0.609375 3.625q0 2.5 0.609375 3.6875q0.625 1.171875 1.875 1.171875z" fill-rule="nonzero"/><path fill="#000000" fill-opacity="0.0" d="m0 394.47507l62.70866 0l0 43.055115l-62.70866 0z" fill-rule="evenodd"/><path fill="#cccccc" d="m25.863699 421.58255q-0.984375 0 -2.015625 -0.25q-1.015625 -0.265625 -1.875 -0.8125q-0.359375 -0.21875 -0.484375 -0.53125q-0.109375 -0.3125 -0.046875 -0.609375q0.0625 -0.3125 0.265625 -0.53125q0.21875 -0.21875 0.53125 -0.25q0.3125 -0.03125 0.6875 0.171875q0.6875 0.390625 1.390625 0.59375q0.71875 0.203125 1.515625 0.203125q0.78125 0 1.34375 -0.28125q0.5625 -0.28125 0.859375 -0.78125q0.296875 -0.5 0.296875 -1.171875q0 -1.046875 -0.640625 -1.6875q-0.625 -0.65625 -1.734375 -0.65625q-0.59375 0 -1.15625 0.203125q-0.5625 0.203125 -1.09375 0.6875q-0.171875 0.140625 -0.4375 0.28125q-0.25 0.140625 -0.546875 0.140625q-0.46875 0 -0.71875 -0.234375q-0.234375 -0.25 -0.234375 -0.671875l0 -6.109375q0 -0.5 0.265625 -0.765625q0.265625 -0.28125 0.78125 -0.28125l6.125 0q0.515625 0 0.78125 0.25q0.265625 0.25 0.265625 0.75q0 0.453125 -0.265625 0.71875q-0.265625 0.265625 -0.78125 0.265625l-4.84375 0l0 4.171875l-0.609375 0q0.484375 -0.65625 1.28125 -1.0q0.796875 -0.359375 1.75 -0.359375q1.25 0 2.171875 0.53125q0.921875 0.53125 1.4375 1.484375q0.515625 0.9375 0.515625 2.1875q0 1.28125 -0.578125 2.265625q-0.578125 0.96875 -1.65625 1.53125q-1.0625 0.546875 -2.546875 0.546875zm11.084383 0q-2.328125 0 -3.5625 -1.765625q-1.234375 -1.765625 -1.234375 -5.03125q0 -2.203125 0.546875 -3.703125q0.5625 -1.5 1.625 -2.265625q1.078125 -0.765625 2.625 -0.765625q2.359375 0 3.578125 1.71875q1.21875 1.71875 1.21875 5.0q0 2.1875 -0.546875 3.703125q-0.546875 1.515625 -1.625 2.3125q-1.0625 0.796875 -2.625 0.796875zm0 -1.953125q1.265625 0 1.875 -1.171875q0.609375 -1.1875 0.609375 -3.6875q0 -2.5 -0.609375 -3.625q-0.609375 -1.125 -1.875 -1.125q-1.25 0 -1.875 1.125q-0.609375 1.125 -0.609375 3.625q0 2.5 0.609375 3.6875q0.625 1.171875 1.875 1.171875z" fill-rule="nonzero"/><path fill="#000000" fill-opacity="0.0" d="m10.748032 24.401575l62.708664 0l0 43.055122l-62.708664 0z" fill-rule="evenodd"/><path fill="#cccccc" d="m28.217978 51.32157q-0.484375 0 -0.75 -0.265625q-0.265625 -0.28125 -0.265625 -0.734375q0 -0.5 0.265625 -0.734375q0.265625 -0.25 0.75 -0.25l2.09375 0l0 -9.15625l1.15625 0l-2.734375 1.65625q-0.359375 0.21875 -0.671875 0.171875q-0.3125 -0.046875 -0.53125 -0.265625q-0.203125 -0.21875 -0.28125 -0.515625q-0.078125 -0.296875 0.046875 -0.59375q0.125 -0.3125 0.484375 -0.53125l2.5625 -1.546875q0.375 -0.21875 0.75 -0.375q0.375 -0.15625 0.6875 -0.15625q0.3906231 0 0.6562481 0.21875q0.265625 0.203125 0.265625 0.6875l0 10.40625l1.90625 0q0.484375 0 0.75 0.25q0.265625 0.234375 0.265625 0.734375q0 0.484375 -0.265625 0.75q-0.265625 0.25 -0.75 0.25l-6.390623 0zm13.881254 0.1875q-2.328125 0 -3.5625 -1.765625q-1.234375 -1.765625 -1.234375 -5.03125q0 -2.203125 0.546875 -3.703125q0.5625 -1.5 1.625 -2.265625q1.078125 -0.765625 2.625 -0.765625q2.3593788 0 3.5781288 1.71875q1.21875 1.71875 1.21875 5.0q0 2.1875 -0.546875 3.703125q-0.546875 1.515625 -1.625 2.3125q-1.0625 0.796875 -2.6250038 0.796875zm0 -1.953125q1.2656288 0 1.8750038 -1.171875q0.609375 -1.1875 0.609375 -3.6875q0 -2.5 -0.609375 -3.625q-0.609375 -1.125 -1.8750038 -1.125q-1.25 0 -1.875 1.125q-0.609375 1.125 -0.609375 3.625q0 2.5 0.609375 3.6875q0.625 1.171875 1.875 1.171875zm11.19376 1.953125q-2.328125 0 -3.5625 -1.765625q-1.234375 -1.765625 -1.234375 -5.03125q0 -2.203125 0.546875 -3.703125q0.5625 -1.5 1.625 -2.265625q1.078125 -0.765625 2.625 -0.765625q2.359375 0 3.578125 1.71875q1.21875 1.71875 1.21875 5.0q0 2.1875 -0.546875 3.703125q-0.546875 1.515625 -1.625 2.3125q-1.0625 0.796875 -2.625 0.796875zm0 -1.953125q1.265625 0 1.875 -1.171875q0.609375 -1.1875 0.609375 -3.6875q0 -2.5 -0.609375 -3.625q-0.609375 -1.125 -1.875 -1.125q-1.25 0 -1.875 1.125q-0.609375 1.125 -0.609375 3.625q0 2.5 0.609375 3.6875q0.625 1.171875 1.875 1.171875z" fill-rule="nonzero"/><path fill="#000000" fill-opacity="0.0" d="m677.1811 844.9055l245.63782 0l0 26.519653l-245.63782 0z" fill-rule="evenodd"/><path fill="#cccccc" d="m709.36304 877.1799q-2.640625 0 -4.53125 -1.0625q-1.875 -1.0625 -2.890625 -3.015625q-1.0 -1.96875 -1.0 -4.625q0 -2.0 0.578125 -3.59375q0.578125 -1.59375 1.65625 -2.734375q1.078125 -1.140625 2.640625 -1.75q1.578125 -0.609375 3.546875 -0.609375q1.328125 0 2.59375 0.34375q1.265625 0.328125 2.234375 0.953125q0.5 0.3125 0.671875 0.765625q0.171875 0.4375 0.0625 0.859375q-0.09375 0.40625 -0.390625 0.703125q-0.296875 0.28125 -0.75 0.328125q-0.4375 0.03125 -0.96875 -0.3125q-0.734375 -0.46875 -1.609375 -0.6875q-0.859375 -0.21875 -1.75 -0.21875q-1.703125 0 -2.875 0.703125q-1.171875 0.6875 -1.78125 2.015625q-0.59375 1.3125 -0.59375 3.234375q0 1.890625 0.59375 3.234375q0.609375 1.34375 1.78125 2.046875q1.171875 0.6875 2.875 0.6875q0.921875 0 1.796875 -0.21875q0.890625 -0.234375 1.6875 -0.71875q0.53125 -0.3125 0.9375 -0.265625q0.421875 0.03125 0.703125 0.296875q0.296875 0.265625 0.390625 0.65625q0.109375 0.390625 -0.046875 0.8125q-0.140625 0.421875 -0.5625 0.734375q-0.96875 0.703125 -2.296875 1.078125q-1.328125 0.359375 -2.703125 0.359375zm12.667419 0q-1.8125 0 -3.15625 -0.734375q-1.34375 -0.75 -2.09375 -2.125q-0.75 -1.390625 -0.75 -3.25q0 -1.421875 0.421875 -2.53125q0.421875 -1.125 1.21875 -1.921875q0.796875 -0.8125 1.890625 -1.21875q1.109375 -0.421875 2.46875 -0.421875q1.828125 0 3.171875 0.75q1.34375 0.734375 2.078125 2.109375q0.75 1.359375 0.75 3.234375q0 1.40625 -0.421875 2.546875q-0.40625 1.125 -1.203125 1.9375q-0.796875 0.796875 -1.90625 1.21875q-1.09375 0.40625 -2.46875 0.40625zm0 -2.28125q0.890625 0 1.5625 -0.421875q0.671875 -0.4375 1.046875 -1.28125q0.375 -0.859375 0.375 -2.125q0 -1.921875 -0.828125 -2.875q-0.8125 -0.953125 -2.15625 -0.953125q-0.875 0 -1.546875 0.421875q-0.671875 0.421875 -1.046875 1.28125q-0.375 0.84375 -0.375 2.125q0 1.890625 0.8125 2.859375q0.8125 0.96875 2.15625 0.96875zm10.011475 2.234375q-0.71875 0 -1.109375 -0.390625q-0.375 -0.390625 -0.375 -1.140625l0 -9.078125q0 -0.734375 0.375 -1.109375q0.390625 -0.390625 1.09375 -0.390625q0.6875 0 1.0625 0.390625q0.390625 0.375 0.390625 1.109375l0 1.765625l-0.265625 -0.734375q0.484375 -1.1875 1.484375 -1.875q1.015625 -0.703125 2.40625 -0.703125q1.421875 0 2.328125 0.671875q0.921875 0.671875 1.28125 2.0625l-0.34375 0q0.484375 -1.28125 1.578125 -2.0q1.109375 -0.734375 2.546875 -0.734375q1.34375 0 2.21875 0.53125q0.875 0.515625 1.3125 1.59375q0.4375 1.0625 0.4375 2.6875l0 5.8125q0 0.75 -0.40625 1.140625q-0.390625 0.390625 -1.109375 0.390625q-0.71875 0 -1.109375 -0.390625q-0.375 -0.390625 -0.375 -1.140625l0 -5.6875q0 -1.34375 -0.453125 -1.96875q-0.4375 -0.625 -1.5 -0.625q-1.171875 0 -1.84375 0.828125q-0.671875 0.828125 -0.671875 2.296875l0 5.15625q0 0.75 -0.390625 1.140625q-0.375 0.390625 -1.09375 0.390625q-0.71875 0 -1.125 -0.390625q-0.390625 -0.390625 -0.390625 -1.140625l0 -5.6875q0 -1.34375 -0.453125 -1.96875q-0.4375 -0.625 -1.46875 -0.625q-1.171875 0 -1.84375 0.828125q-0.671875 0.828125 -0.671875 2.296875l0 5.15625q0 1.53125 -1.515625 1.53125zm21.001099 4.328125q-0.71875 0 -1.109375 -0.390625q-0.375 -0.375 -0.375 -1.125l0 -13.421875q0 -0.734375 0.375 -1.109375q0.390625 -0.390625 1.09375 -0.390625q0.71875 0 1.09375 0.390625q0.390625 0.375 0.390625 1.109375l0 1.875l-0.265625 -0.71875q0.359375 -1.21875 1.46875 -1.953125q1.125 -0.75 2.609375 -0.75q1.53125 0 2.6875 0.75q1.171875 0.734375 1.8125 2.09375q0.65625 1.34375 0.65625 3.25q0 1.859375 -0.65625 3.25q-0.640625 1.375 -1.796875 2.125q-1.140625 0.734375 -2.703125 0.734375q-1.46875 0 -2.578125 -0.71875q-1.09375 -0.734375 -1.484375 -1.921875l0.296875 0l0 5.40625q0 0.75 -0.40625 1.125q-0.390625 0.390625 -1.109375 0.390625zm4.4375 -6.5625q0.890625 0 1.5625 -0.421875q0.671875 -0.4375 1.046875 -1.28125q0.375 -0.859375 0.375 -2.125q0 -1.921875 -0.828125 -2.875q-0.8125 -0.953125 -2.15625 -0.953125q-0.890625 0 -1.5625 0.421875q-0.671875 0.421875 -1.046875 1.28125q-0.359375 0.84375 -0.359375 2.125q0 1.890625 0.8125 2.859375q0.8125 0.96875 2.15625 0.96875zm10.009338 2.234375q-0.734375 0 -1.140625 -0.390625q-0.390625 -0.390625 -0.390625 -1.140625l0 -9.078125q0 -0.734375 0.375 -1.109375q0.390625 -0.390625 1.09375 -0.390625q0.6875 0 1.0625 0.390625q0.390625 0.375 0.390625 1.109375l0 1.515625l-0.234375 0q0.328125 -1.4375 1.3125 -2.171875q0.984375 -0.75 2.625 -0.890625q0.5 -0.0625 0.796875 0.25q0.296875 0.296875 0.359375 0.921875q0.046875 0.59375 -0.28125 0.96875q-0.328125 0.375 -0.96875 0.4375l-0.53125 0.046875q-1.46875 0.15625 -2.21875 0.90625q-0.734375 0.75 -0.734375 2.125l0 4.96875q0 0.75 -0.390625 1.140625q-0.375 0.390625 -1.125 0.390625zm13.465942 0.046875q-1.984375 0 -3.4375 -0.734375q-1.4375 -0.75 -2.21875 -2.109375q-0.78125 -1.375 -0.78125 -3.25q0 -1.828125 0.75 -3.1875q0.765625 -1.375 2.09375 -2.140625q1.34375 -0.78125 3.046875 -0.78125q1.25 0 2.234375 0.40625q1.0 0.40625 1.703125 1.171875q0.71875 0.765625 1.078125 1.859375q0.375 1.09375 0.375 2.453125q0 0.4375 -0.296875 0.671875q-0.296875 0.21875 -0.84375 0.21875l-7.703125 0l0 -1.71875l6.734375 0l-0.375 0.359375q0 -1.109375 -0.328125 -1.84375q-0.328125 -0.75 -0.9375 -1.140625q-0.609375 -0.40625 -1.53125 -0.40625q-1.0 0 -1.71875 0.46875q-0.703125 0.46875 -1.078125 1.328125q-0.359375 0.84375 -0.359375 2.015625l0 0.171875q0 1.96875 0.921875 2.9375q0.921875 0.96875 2.71875 0.96875q0.625 0 1.40625 -0.15625q0.78125 -0.15625 1.46875 -0.53125q0.515625 -0.296875 0.890625 -0.25q0.390625 0.03125 0.609375 0.28125q0.234375 0.234375 0.28125 0.578125q0.046875 0.34375 -0.140625 0.703125q-0.171875 0.359375 -0.609375 0.625q-0.828125 0.53125 -1.921875 0.78125q-1.09375 0.25 -2.03125 0.25zm11.523621 0q-1.03125 0 -2.1875 -0.21875q-1.15625 -0.203125 -2.0625 -0.734375q-0.390625 -0.234375 -0.546875 -0.5625q-0.15625 -0.328125 -0.125 -0.640625q0.046875 -0.328125 0.25 -0.5625q0.203125 -0.25 0.53125 -0.3125q0.328125 -0.078125 0.703125 0.109375q0.96875 0.453125 1.796875 0.640625q0.84375 0.171875 1.65625 0.171875q1.15625 0 1.71875 -0.390625q0.5625 -0.390625 0.5625 -1.046875q0 -0.546875 -0.375 -0.84375q-0.359375 -0.3125 -1.109375 -0.453125l-2.40625 -0.453125q-1.484375 -0.296875 -2.265625 -1.09375q-0.78125 -0.796875 -0.78125 -2.078125q0 -1.15625 0.640625 -1.984375q0.640625 -0.84375 1.765625 -1.296875q1.125 -0.453125 2.59375 -0.453125q1.046875 0 1.96875 0.234375q0.9375 0.21875 1.796875 0.6875q0.359375 0.203125 0.484375 0.515625q0.140625 0.3125 0.0625 0.640625q-0.0625 0.3125 -0.28125 0.5625q-0.21875 0.25 -0.546875 0.3125q-0.3125 0.0625 -0.734375 -0.125q-0.734375 -0.390625 -1.421875 -0.546875q-0.6875 -0.171875 -1.3125 -0.171875q-1.171875 0 -1.734375 0.40625q-0.5625 0.40625 -0.5625 1.078125q0 0.5 0.328125 0.84375q0.34375 0.328125 1.03125 0.453125l2.40625 0.453125q1.5625 0.28125 2.359375 1.0625q0.8125 0.765625 0.8125 2.0625q0 1.75 -1.375 2.75q-1.359375 0.984375 -3.640625 0.984375zm11.711914 0q-1.03125 0 -2.1875 -0.21875q-1.15625 -0.203125 -2.0625 -0.734375q-0.390625 -0.234375 -0.546875 -0.5625q-0.15625 -0.328125 -0.125 -0.640625q0.046875 -0.328125 0.25 -0.5625q0.203125 -0.25 0.53125 -0.3125q0.328125 -0.078125 0.703125 0.109375q0.96875 0.453125 1.796875 0.640625q0.84375 0.171875 1.65625 0.171875q1.15625 0 1.71875 -0.390625q0.5625 -0.390625 0.5625 -1.046875q0 -0.546875 -0.375 -0.84375q-0.359375 -0.3125 -1.109375 -0.453125l-2.40625 -0.453125q-1.484375 -0.296875 -2.265625 -1.09375q-0.78125 -0.796875 -0.78125 -2.078125q0 -1.15625 0.640625 -1.984375q0.640625 -0.84375 1.765625 -1.296875q1.125 -0.453125 2.59375 -0.453125q1.046875 0 1.96875 0.234375q0.9375 0.21875 1.796875 0.6875q0.359375 0.203125 0.484375 0.515625q0.140625 0.3125 0.0625 0.640625q-0.0625 0.3125 -0.28125 0.5625q-0.21875 0.25 -0.546875 0.3125q-0.3125 0.0625 -0.734375 -0.125q-0.734375 -0.390625 -1.421875 -0.546875q-0.6875 -0.171875 -1.3125 -0.171875q-1.171875 0 -1.734375 0.40625q-0.5625 0.40625 -0.5625 1.078125q0 0.5 0.328125 0.84375q0.34375 0.328125 1.03125 0.453125l2.40625 0.453125q1.5625 0.28125 2.359375 1.0625q0.8125 0.765625 0.8125 2.0625q0 1.75 -1.375 2.75q-1.359375 0.984375 -3.640625 0.984375zm13.19635 0q-1.984375 0 -3.4375 -0.734375q-1.4375 -0.75 -2.21875 -2.109375q-0.78125 -1.375 -0.78125 -3.25q0 -1.828125 0.75 -3.1875q0.765625 -1.375 2.09375 -2.140625q1.34375 -0.78125 3.046875 -0.78125q1.25 0 2.234375 0.40625q1.0 0.40625 1.703125 1.171875q0.71875 0.765625 1.078125 1.859375q0.375 1.09375 0.375 2.453125q0 0.4375 -0.296875 0.671875q-0.296875 0.21875 -0.84375 0.21875l-7.703125 0l0 -1.71875l6.734375 0l-0.375 0.359375q0 -1.109375 -0.328125 -1.84375q-0.328125 -0.75 -0.9375 -1.140625q-0.609375 -0.40625 -1.53125 -0.40625q-1.0 0 -1.71875 0.46875q-0.703125 0.46875 -1.078125 1.328125q-0.359375 0.84375 -0.359375 2.015625l0 0.171875q0 1.96875 0.921875 2.9375q0.921875 0.96875 2.71875 0.96875q0.625 0 1.40625 -0.15625q0.78125 -0.15625 1.46875 -0.53125q0.515625 -0.296875 0.890625 -0.25q0.390625 0.03125 0.609375 0.28125q0.234375 0.234375 0.28125 0.578125q0.046875 0.34375 -0.140625 0.703125q-0.171875 0.359375 -0.609375 0.625q-0.828125 0.53125 -1.921875 0.78125q-1.09375 0.25 -2.03125 0.25zm11.742371 0q-1.546875 0 -2.71875 -0.734375q-1.15625 -0.75 -1.8125 -2.125q-0.640625 -1.390625 -0.640625 -3.25q0 -1.90625 0.640625 -3.25q0.65625 -1.359375 1.8125 -2.09375q1.171875 -0.75 2.71875 -0.75q1.453125 0 2.546875 0.71875q1.09375 0.71875 1.484375 1.890625l-0.265625 0l0 -6.234375q0 -0.75 0.375 -1.125q0.390625 -0.390625 1.109375 -0.390625q0.71875 0 1.109375 0.390625q0.40625 0.375 0.40625 1.125l0 14.25q0 0.75 -0.390625 1.140625q-0.375 0.390625 -1.09375 0.390625q-0.734375 0 -1.125 -0.390625q-0.375 -0.390625 -0.375 -1.140625l0 -1.875l0.265625 0.71875q-0.359375 1.25 -1.46875 2.0q-1.09375 0.734375 -2.578125 0.734375zm0.828125 -2.28125q0.890625 0 1.5625 -0.421875q0.671875 -0.4375 1.046875 -1.28125q0.375 -0.859375 0.375 -2.125q0 -1.921875 -0.828125 -2.875q-0.8125 -0.953125 -2.15625 -0.953125q-0.875 0 -1.546875 0.421875q-0.671875 0.421875 -1.046875 1.28125q-0.375 0.84375 -0.375 2.125q0 1.890625 0.8125 2.859375q0.8125 0.96875 2.15625 0.96875zm21.46643 2.234375q-0.75 0 -1.15625 -0.40625q-0.390625 -0.421875 -0.390625 -1.171875l0 -12.96875l-4.671875 0q-0.625 0 -0.984375 -0.34375q-0.34375 -0.34375 -0.34375 -0.9375q0 -0.625 0.34375 -0.953125q0.359375 -0.328125 0.984375 -0.328125l12.4375 0q0.609375 0 0.953125 0.328125q0.359375 0.328125 0.359375 0.953125q0 0.59375 -0.359375 0.9375q-0.34375 0.34375 -0.953125 0.34375l-4.6875 0l0 12.96875q0 0.75 -0.390625 1.171875q-0.375 0.40625 -1.140625 0.40625zm11.802063 -0.015625q-0.71875 0 -1.109375 -0.4375q-0.375 -0.4375 -0.375 -1.203125l0 -8.796875q0 -0.796875 0.375 -1.21875q0.390625 -0.421875 1.109375 -0.421875q0.71875 0 1.109375 0.421875q0.40625 0.421875 0.40625 1.21875l0 8.796875q0 0.765625 -0.390625 1.203125q-0.375 0.4375 -1.125 0.4375zm0 -14.3125q-0.84375 0 -1.3125 -0.40625q-0.46875 -0.421875 -0.46875 -1.171875q0 -0.765625 0.46875 -1.171875q0.46875 -0.40625 1.3125 -0.40625q0.859375 0 1.3125 0.40625q0.46875 0.40625 0.46875 1.171875q0 0.75 -0.46875 1.171875q-0.453125 0.40625 -1.3125 0.40625zm6.16687 14.328125q-0.71875 0 -1.109375 -0.390625q-0.375 -0.390625 -0.375 -1.140625l0 -9.078125q0 -0.734375 0.375 -1.109375q0.390625 -0.390625 1.09375 -0.390625q0.6875 0 1.0625 0.390625q0.390625 0.375 0.390625 1.109375l0 1.765625l-0.265625 -0.734375q0.484375 -1.1875 1.484375 -1.875q1.015625 -0.703125 2.40625 -0.703125q1.421875 0 2.328125 0.671875q0.921875 0.671875 1.28125 2.0625l-0.34375 0q0.484375 -1.28125 1.578125 -2.0q1.109375 -0.734375 2.546875 -0.734375q1.34375 0 2.21875 0.53125q0.875 0.515625 1.3125 1.59375q0.4375 1.0625 0.4375 2.6875l0 5.8125q0 0.75 -0.40625 1.140625q-0.390625 0.390625 -1.109375 0.390625q-0.71875 0 -1.109375 -0.390625q-0.375 -0.390625 -0.375 -1.140625l0 -5.6875q0 -1.34375 -0.453125 -1.96875q-0.4375 -0.625 -1.5 -0.625q-1.171875 0 -1.84375 0.828125q-0.671875 0.828125 -0.671875 2.296875l0 5.15625q0 0.75 -0.390625 1.140625q-0.375 0.390625 -1.09375 0.390625q-0.71875 0 -1.125 -0.390625q-0.390625 -0.390625 -0.390625 -1.140625l0 -5.6875q0 -1.34375 -0.453125 -1.96875q-0.4375 -0.625 -1.46875 -0.625q-1.171875 0 -1.84375 0.828125q-0.671875 0.828125 -0.671875 2.296875l0 5.15625q0 1.53125 -1.515625 1.53125zm25.297974 0.046875q-1.984375 0 -3.4375 -0.734375q-1.4375 -0.75 -2.21875 -2.109375q-0.78125 -1.375 -0.78125 -3.25q0 -1.828125 0.75 -3.1875q0.765625 -1.375 2.09375 -2.140625q1.34375 -0.78125 3.046875 -0.78125q1.25 0 2.234375 0.40625q1.0 0.40625 1.703125 1.171875q0.71875 0.765625 1.078125 1.859375q0.375 1.09375 0.375 2.453125q0 0.4375 -0.296875 0.671875q-0.296875 0.21875 -0.84375 0.21875l-7.703125 0l0 -1.71875l6.734375 0l-0.375 0.359375q0 -1.109375 -0.328125 -1.84375q-0.328125 -0.75 -0.9375 -1.140625q-0.609375 -0.40625 -1.53125 -0.40625q-1.0 0 -1.71875 0.46875q-0.703125 0.46875 -1.078125 1.328125q-0.359375 0.84375 -0.359375 2.015625l0 0.171875q0 1.96875 0.921875 2.9375q0.921875 0.96875 2.71875 0.96875q0.625 0 1.40625 -0.15625q0.78125 -0.15625 1.46875 -0.53125q0.515625 -0.296875 0.890625 -0.25q0.390625 0.03125 0.609375 0.28125q0.234375 0.234375 0.28125 0.578125q0.046875 0.34375 -0.140625 0.703125q-0.171875 0.359375 -0.609375 0.625q-0.828125 0.53125 -1.921875 0.78125q-1.09375 0.25 -2.03125 0.25z" fill-rule="nonzero"/><path fill="#000000" fill-opacity="0.0" d="m168.21654 229.38618l0 0c0 -46.262375 37.503067 -83.76546 83.76546 -83.76546l472.75256 0c22.215942 0 43.522034 8.825272 59.23108 24.534348c15.709106 15.709061 24.534363 37.015137 24.534363 59.23111l0 335.05176c0 46.26239 -37.50305 83.7655 -83.76544 83.7655l-472.75256 0l0 0c-46.26239 0 -83.76546 -37.503113 -83.76546 -83.7655z" fill-rule="evenodd"/><path stroke="#6aa84f" stroke-width="8.0" stroke-linejoin="round" stroke-linecap="butt" stroke-dasharray="32.0,24.0" d="m168.21654 229.38618l0 0c0 -46.262375 37.503067 -83.76546 83.76546 -83.76546l472.75256 0c22.215942 0 43.522034 8.825272 59.23108 24.534348c15.709106 15.709061 24.534363 37.015137 24.534363 59.23111l0 335.05176c0 46.26239 -37.50305 83.7655 -83.76544 83.7655l-472.75256 0l0 0c-46.26239 0 -83.76546 -37.503113 -83.76546 -83.7655z" fill-rule="evenodd"/><path fill="#91ffe4" fill-opacity="0.6955" d="m1215.4308 325.94034c1.9006348 -6.9365845 -6.6759033 -29.874023 -5.7297363 -34.58792c0.946167 -4.713928 9.668945 -0.6321106 11.40686 6.3044434c1.737915 6.9365845 1.0853271 28.159668 -0.9790039 35.314972c-2.064331 7.155304 -7.7681885 7.616791 -11.40686 7.616791c-3.6386719 0 -11.543335 -5.175415 -10.425171 -7.616791c1.1181641 -2.4413757 15.233154 -0.094940186 17.133911 -7.031494z" fill-rule="evenodd"/><path fill="#91ffe4" fill-opacity="0.6955" d="m960.07556 399.74286c1.9006958 -6.9365845 -13.423462 -30.98294 -13.826782 -35.91864c-0.4033203 -4.9356995 9.668884 -0.6321106 11.406799 6.304474c1.7379761 6.936554 1.0853271 28.159668 -0.9790039 35.31494c-2.06427 7.155304 -7.7681274 7.6168213 -11.406799 7.6168213c-3.6386719 0 -12.892822 -5.397217 -10.425171 -7.6168213c2.4675903 -2.219574 23.330261 1.2358093 25.230957 -5.700775z" fill-rule="evenodd"/><path fill="#91ffe4" fill-opacity="0.6955" d="m909.546 319.80667c1.8034058 -2.3806152 7.213135 -2.088623 10.8203125 -2.0736084c3.6071777 0.015014648 9.173828 -0.21694946 10.822815 2.1636963c1.6489868 2.3806152 0.7288208 11.709778 -0.92889404 12.120087c-1.6577148 0.41030884 -5.5649414 -9.658234 -9.017334 -9.658234c-3.4523315 0 -9.7473755 10.083557 -11.696899 9.658234c-1.9494629 -0.4253235 -1.8033447 -9.829529 0 -12.210175z" fill-rule="evenodd"/><path fill="#91ffe4" fill-opacity="0.6955" d="m1353.4297 319.08765c1.8026123 -12.864105 7.2105713 -11.282196 10.815918 -11.201141c3.6052246 0.08105469 9.167603 -1.1766052 10.815796 11.6875c1.6481934 12.864136 1.0307617 52.227325 -0.9265137 65.49722c-1.9572754 13.269928 -7.366333 14.122284 -10.817139 14.122284c-3.4508057 0 -8.23999 -0.77130127 -9.888062 -14.122284c-1.6479492 -13.350983 -1.8026123 -53.119446 0 -65.98358z" fill-rule="evenodd"/></g></svg>