<svg version="1.1" viewBox="0.0 0.0 1600.0 900.0" fill="none" stroke="none" stroke-linecap="square" stroke-miterlimit="10" xmlns:xlink="http://www.w3.org/1999/xlink" xmlns="http://www.w3.org/2000/svg"><clipPath id="p.0"><path d="m0 0l1600.0 0l0 900.0l-1600.0 0l0 -900.0z" clip-rule="nonzero"/></clipPath><g clip-path="url(#p.0)"><path fill="#000000" fill-opacity="0.0" d="m0 0l1600.0 0l0 900.0l-1600.0 0z" fill-rule="evenodd"/><path fill="#060116" d="m0 -2.0l1600.0 0l0 900.0l-1600.0 0z" fill-rule="evenodd"/><path stroke="#000000" stroke-width="1.0" stroke-linejoin="round" stroke-linecap="butt" d="m0 -2.0l1600.0 0l0 900.0l-1600.0 0z" fill-rule="evenodd"/><path fill="#000000" fill-opacity="0.0" d="m68.0 822.0l1460.0 0" fill-rule="evenodd"/><path stroke="#cccccc" stroke-width="3.0" stroke-linejoin="round" stroke-linecap="butt" d="m68.0 822.0l1460.0 0" fill-rule="evenodd"/><path fill="#000000" fill-opacity="0.0" d="m277.2861 824.04987l0 11.40155" fill-rule="evenodd"/><path stroke="#cccccc" stroke-width="3.0" stroke-linejoin="round" stroke-linecap="butt" d="m277.2861 824.04987l0 11.40155" fill-rule="evenodd"/><path fill="#000000" fill-opacity="0.0" d="m68.0 46.0l0 778.01575" fill-rule="evenodd"/><path stroke="#cccccc" stroke-width="3.0" stroke-linejoin="round" stroke-linecap="butt" d="m68.0 46.0l0 778.01575" fill-rule="evenodd"/><path fill="#000000" fill-opacity="0.0" d="m68.0 417.1706l-11.401573 0" fill-rule="evenodd"/><path stroke="#cccccc" stroke-width="3.0" stroke-linejoin="round" stroke-linecap="butt" d="m68.0 417.1706l-11.401573 0" fill-rule="evenodd"/><path fill="#000000" fill-opacity="0.0" d="m695.8583 824.04987l0 11.40155" fill-rule="evenodd"/><path stroke="#cccccc" stroke-width="3.0" stroke-linejoin="round" stroke-linecap="butt" d="m695.8583 824.04987l0 11.40155" fill-rule="evenodd"/><path fill="#000000" fill-opacity="0.0" d="m486.57217 824.04987l0 11.40155" fill-rule="evenodd"/><path stroke="#cccccc" stroke-width="3.0" stroke-linejoin="round" stroke-linecap="butt" d="m486.57217 824.04987l0 11.40155" fill-rule="evenodd"/><path fill="#000000" fill-opacity="0.0" d="m1113.9291 824.04987l0 11.40155" fill-rule="evenodd"/><path stroke="#cccccc" stroke-width="3.0" stroke-linejoin="round" stroke-linecap="butt" d="m1113.9291 824.04987l0 11.40155" fill-rule="evenodd"/><path fill="#000000" fill-opacity="0.0" d="m904.64307 824.04987l0 11.40155" fill-rule="evenodd"/><path stroke="#cccccc" stroke-width="3.0" stroke-linejoin="round" stroke-linecap="butt" d="m904.64307 824.04987l0 11.40155" fill-rule="evenodd"/><path fill="#000000" fill-opacity="0.0" d="m1323.2152 824.04987l0 11.40155" fill-rule="evenodd"/><path stroke="#cccccc" stroke-width="3.0" stroke-linejoin="round" stroke-linecap="butt" d="m1323.2152 824.04987l0 11.40155" fill-rule="evenodd"/><path fill="#000000" fill-opacity="0.0" d="m10.748032 357.66403l0 -227.27557l31.02362 0l0 227.27557z" fill-rule="evenodd"/><path fill="#cccccc" d="m42.975533 345.22653q0 0.75 -0.40625 1.171875q-0.421875 0.421875 -1.21875 0.421875l-13.84375 0q-0.796875 0 -1.21875 -0.421875q-0.421875 -0.421875 -0.421875 -1.21875l0 -8.375q0 -0.625 0.3125 -0.9375q0.3125 -0.3125 0.890625 -0.3125q0.59375 0 0.921875 0.3125q0.328125 0.3125 0.328125 0.9375l0 6.9375l4.765625 0l0 -6.4375q0 -0.59375 0.3125 -0.90625q0.3125 -0.328125 0.890625 -0.328125q0.609375 0 0.9375 0.328125q0.3125 0.3125 0.3125 0.90625l0 6.4375l5.8125 0q1.625 0 1.625 1.484375zm0 -12.904205q0 0.734375 -0.390625 1.140625q-0.390625 0.390625 -1.140625 0.390625l-9.078125 0q-0.734375 0 -1.109375 -0.375q-0.390625 -0.390625 -0.390625 -1.09375q0 -0.6875 0.390625 -1.0625q0.375 -0.390625 1.109375 -0.390625l1.515625 0l0 0.234375q-1.4375 -0.328125 -2.171875 -1.3125q-0.75 -0.984375 -0.890625 -2.625q-0.0625 -0.5 0.25 -0.796875q0.296875 -0.296875 0.921875 -0.359375q0.59375 -0.046875 0.96875 0.28125q0.375 0.328125 0.4375 0.96875l0.046875 0.53125q0.15625 1.46875 0.90625 2.21875q0.75 0.734375 2.125 0.734375l4.96875 0q0.75 0 1.140625 0.390625q0.390625 0.375 0.390625 1.125zm0.046875 -13.465973q0 1.984375 -0.734375 3.4375q-0.75 1.4375 -2.109375 2.21875q-1.375 0.78125 -3.25 0.78125q-1.828125 0 -3.1875 -0.75q-1.375 -0.765625 -2.140625 -2.09375q-0.78125 -1.34375 -0.78125 -3.046875q0 -1.25 0.40625 -2.234375q0.40625 -1.0 1.171875 -1.703125q0.765625 -0.71875 1.859375 -1.078125q1.09375 -0.375 2.453125 -0.375q0.4375 0 0.671875 0.296875q0.21875 0.296875 0.21875 0.84375l0 7.703125l-1.71875 0l0 -6.734375l0.359375 0.375q-1.109375 0 -1.84375 0.328125q-0.75 0.328125 -1.140625 0.9375q-0.40625 0.609375 -0.40625 1.53125q0 1.0 0.46875 1.71875q0.46875 0.703125 1.328125 1.078125q0.84375 0.359375 2.015625 0.359375l0.171875 0q1.96875 0 2.9375 -0.921875q0.96875 -0.921875 0.96875 -2.71875q0 -0.625 -0.15625 -1.40625q-0.15625 -0.78125 -0.53125 -1.46875q-0.296875 -0.515625 -0.25 -0.890625q0.03125 -0.390625 0.28125 -0.609375q0.234375 -0.234375 0.578125 -0.28125q0.34375 -0.046875 0.703125 0.140625q0.359375 0.171875 0.625 0.609375q0.53125 0.828125 0.78125 1.921875q0.25 1.09375 0.25 2.03125zm4.28125 -16.99234q0 0.71875 -0.390625 1.109375q-0.375 0.375 -1.125 0.375l-5.40625 0l0 -0.265625q1.1875 0.390625 1.921875 1.484375q0.71875 1.09375 0.71875 2.546875q0 1.546875 -0.734375 2.71875q-0.75 1.15625 -2.125 1.8125q-1.390625 0.640625 -3.25 0.640625q-1.90625 0 -3.25 -0.640625q-1.359375 -0.65625 -2.09375 -1.8125q-0.75 -1.171875 -0.75 -2.71875q0 -1.484375 0.75 -2.578125q0.734375 -1.109375 1.953125 -1.46875l0.71875 0.265625l-1.875 0q-0.734375 0 -1.109375 -0.375q-0.390625 -0.390625 -0.390625 -1.125q0 -0.71875 0.390625 -1.09375q0.375 -0.390625 1.109375 -0.390625l13.421875 0q0.75 0 1.125 0.40625q0.390625 0.390625 0.390625 1.109375zm-6.5625 4.421875q0 -0.890625 -0.421875 -1.5625q-0.4375 -0.671875 -1.28125 -1.046875q-0.859375 -0.375 -2.125 -0.375q-1.921875 0 -2.875 0.828125q-0.953125 0.8125 -0.953125 2.15625q0 0.875 0.421875 1.546875q0.421875 0.671875 1.28125 1.046875q0.84375 0.375 2.125 0.375q1.890625 0 2.859375 -0.8125q0.96875 -0.8125 0.96875 -2.15625zm2.28125 -13.306213q0 1.46875 -0.53125 2.4375q-0.546875 0.953125 -1.625 1.421875q-1.078125 0.46875 -2.6875 0.46875l-5.8125 0q-0.765625 0 -1.125 -0.375q-0.375 -0.390625 -0.375 -1.109375q0 -0.734375 0.375 -1.125q0.359375 -0.390625 1.125 -0.390625l5.859375 0q1.25 0 1.859375 -0.5q0.59375 -0.515625 0.59375 -1.609375q0 -1.203125 -0.828125 -1.96875q-0.828125 -0.78125 -2.203125 -0.78125l-5.28125 0q-0.765625 0 -1.125 -0.375q-0.375 -0.390625 -0.375 -1.109375q0 -0.71875 0.375 -1.109375q0.359375 -0.40625 1.125 -0.40625l9.078125 0q1.53125 0 1.53125 1.46875q0 0.703125 -0.390625 1.09375q-0.390625 0.375 -1.140625 0.375l-1.828125 0l0.71875 -0.34375q1.296875 0.515625 2.0 1.53125q0.6875 1.015625 0.6875 2.40625zm0 -15.427216q0 1.984375 -0.734375 3.4375q-0.75 1.4375 -2.109375 2.21875q-1.375 0.78125 -3.25 0.78125q-1.828125 0 -3.1875 -0.75q-1.375 -0.765625 -2.140625 -2.09375q-0.78125 -1.34375 -0.78125 -3.046875q0 -1.25 0.40625 -2.234375q0.40625 -1.0 1.171875 -1.703125q0.765625 -0.71875 1.859375 -1.078125q1.09375 -0.375 2.453125 -0.375q0.4375 0 0.671875 0.296875q0.21875 0.296875 0.21875 0.84375l0 7.703125l-1.71875 0l0 -6.734375l0.359375 0.375q-1.109375 0 -1.84375 0.328125q-0.75 0.328125 -1.140625 0.9375q-0.40625 0.609375 -0.40625 1.53125q0 1.0 0.46875 1.71875q0.46875 0.703125 1.328125 1.078125q0.84375 0.359375 2.015625 0.359375l0.171875 0q1.96875 0 2.9375 -0.921875q0.96875 -0.921875 0.96875 -2.71875q0 -0.625 -0.15625 -1.40625q-0.15625 -0.78125 -0.53125 -1.46875q-0.296875 -0.515625 -0.25 -0.890625q0.03125 -0.390625 0.28125 -0.609375q0.234375 -0.234375 0.578125 -0.28125q0.34375 -0.046875 0.703125 0.140625q0.359375 0.171875 0.625 0.609375q0.53125 0.828125 0.78125 1.921875q0.25 1.09375 0.25 2.03125zm-0.046875 -8.71109q0 0.71875 -0.390625 1.109375q-0.390625 0.375 -1.140625 0.375l-9.078125 0q-0.734375 0 -1.109375 -0.375q-0.390625 -0.390625 -0.390625 -1.09375q0 -0.6875 0.390625 -1.0625q0.375 -0.390625 1.109375 -0.390625l1.640625 0l-0.609375 0.265625q-1.265625 -0.53125 -1.921875 -1.640625q-0.65625 -1.125 -0.65625 -2.546875q0 -1.40625 0.53125 -2.3125q0.515625 -0.921875 1.59375 -1.375q1.0625 -0.453125 2.6875 -0.453125l5.8125 0q0.75 0 1.140625 0.390625q0.390625 0.375 0.390625 1.09375q0 0.71875 -0.390625 1.125q-0.390625 0.390625 -1.140625 0.390625l-5.671875 0q-1.359375 0 -1.984375 0.515625q-0.625 0.515625 -0.625 1.59375q0 1.3125 0.828125 2.09375q0.828125 0.78125 2.203125 0.78125l5.25 0q1.53125 0 1.53125 1.515625zm0.046875 -17.977448q0 1.84375 -0.75 3.21875q-0.75 1.359375 -2.140625 2.109375q-1.40625 0.75 -3.265625 0.75q-1.421875 0 -2.53125 -0.421875q-1.125 -0.421875 -1.90625 -1.21875q-0.78125 -0.796875 -1.1875 -1.921875q-0.421875 -1.125 -0.421875 -2.515625q0 -0.796875 0.21875 -1.71875q0.203125 -0.921875 0.703125 -1.734375q0.25 -0.390625 0.59375 -0.5q0.328125 -0.125 0.671875 -0.046875q0.34375 0.0625 0.609375 0.296875q0.25 0.21875 0.3125 0.5625q0.046875 0.328125 -0.171875 0.734375q-0.3125 0.53125 -0.453125 1.09375q-0.15625 0.546875 -0.15625 1.046875q0 0.796875 0.25 1.40625q0.25 0.59375 0.71875 1.015625q0.46875 0.40625 1.171875 0.625q0.6875 0.21875 1.59375 0.21875q1.78125 0 2.796875 -0.84375q1.015625 -0.859375 1.015625 -2.421875q0 -0.5 -0.140625 -1.03125q-0.140625 -0.546875 -0.453125 -1.109375q-0.21875 -0.40625 -0.140625 -0.71875q0.0625 -0.328125 0.328125 -0.546875q0.25 -0.21875 0.59375 -0.265625q0.34375 -0.046875 0.6875 0.09375q0.328125 0.125 0.546875 0.484375q0.484375 0.796875 0.6875 1.6875q0.21875 0.875 0.21875 1.671875zm4.28125 -9.066849q0 0.515625 -0.28125 0.859375q-0.28125 0.328125 -0.734375 0.390625q-0.453125 0.0625 -0.953125 -0.15625l-3.625 -1.625l1.25 0l-10.109375 4.359375q-0.53125 0.21875 -0.984375 0.15625q-0.453125 -0.078125 -0.71875 -0.453125q-0.28125 -0.375 -0.28125 -1.015625q0 -0.546875 0.25 -0.875q0.25 -0.34375 0.9375 -0.609375l8.09375 -3.25l0 0.71875l-8.109375 -3.3125q-0.671875 -0.25 -0.921875 -0.609375q-0.25 -0.359375 -0.25 -0.96875q0 -0.53125 0.28125 -0.84375q0.265625 -0.3125 0.71875 -0.375q0.4375 -0.078125 0.96875 0.171875l13.3125 5.828125q0.671875 0.3125 0.90625 0.671875q0.25 0.359375 0.25 0.9375zm-0.609375 -19.79982q-2.34375 1.484375 -4.9375 2.140625q-2.609375 0.65625 -5.28125 0.65625q-1.78125 0 -3.53125 -0.28125q-1.75 -0.28125 -3.4375 -0.90625q-1.6875 -0.625 -3.25 -1.609375q-0.4375 -0.265625 -0.546875 -0.703125q-0.109375 -0.453125 0.0625 -0.84375q0.171875 -0.40625 0.625 -0.59375q0.4375 -0.1875 1.109375 0.046875q1.53125 0.578125 3.015625 0.953125q1.46875 0.375 2.9375 0.5625q1.453125 0.171875 3.015625 0.171875q1.5625 0 3.03125 -0.1875q1.453125 -0.203125 2.921875 -0.578125q1.46875 -0.390625 3.015625 -0.921875q0.6875 -0.234375 1.125 -0.046875q0.4375 0.1875 0.609375 0.59375q0.171875 0.390625 0.0625 0.84375q-0.109375 0.4375 -0.546875 0.703125zm-3.71875 -6.43573q0 0.71875 -0.390625 1.109375q-0.390625 0.375 -1.140625 0.375l-14.25 0q-0.75 0 -1.125 -0.375q-0.390625 -0.390625 -0.390625 -1.109375q0 -0.71875 0.390625 -1.109375q0.375 -0.40625 1.125 -0.40625l8.84375 0l0 -0.046875l-4.171875 -3.953125q-0.484375 -0.484375 -0.734375 -0.84375q-0.265625 -0.359375 -0.265625 -0.984375q0 -0.625 0.328125 -0.9375q0.3125 -0.328125 0.765625 -0.328125q0.453125 0 0.921875 0.421875l4.40625 4.171875l-1.25 0l4.953125 -4.578125q0.453125 -0.4375 0.921875 -0.390625q0.46875 0.03125 0.765625 0.390625q0.296875 0.359375 0.296875 0.90625q0 0.671875 -0.265625 1.078125q-0.265625 0.390625 -0.78125 0.875l-4.375 4.171875l0 0.046875l3.890625 0q1.53125 0 1.53125 1.515625zm0 -13.207718q0 0.75 -0.40625 1.15625q-0.421875 0.390625 -1.171875 0.390625l-14.140625 0q-0.765625 0 -1.171875 -0.390625q-0.40625 -0.40625 -0.40625 -1.15625q0 -0.734375 0.40625 -1.125q0.40625 -0.40625 1.171875 -0.40625l5.671875 0l0 -8.703125l-5.671875 0q-0.765625 0 -1.171875 -0.390625q-0.40625 -0.40625 -0.40625 -1.15625q0 -0.734375 0.40625 -1.125q0.40625 -0.40625 1.171875 -0.40625l14.140625 0q0.75 0 1.171875 0.40625q0.40625 0.390625 0.40625 1.125q0 0.75 -0.40625 1.15625q-0.421875 0.390625 -1.171875 0.390625l-5.90625 0l0 8.703125l5.90625 0q0.75 0 1.171875 0.390625q0.40625 0.375 0.40625 1.140625zm-0.1875 -17.442566q0 0.453125 -0.21875 0.765625q-0.234375 0.296875 -0.59375 0.390625q-0.359375 0.09375 -0.78125 -0.015625q-0.421875 -0.109375 -0.8125 -0.4375l-7.796875 -6.21875l0.71875 0l0 5.65625q0 0.5625 -0.296875 0.859375q-0.296875 0.296875 -0.828125 0.296875q-0.546875 0 -0.828125 -0.296875q-0.296875 -0.296875 -0.296875 -0.859375l0 -7.09375q0 -0.53125 0.234375 -0.859375q0.21875 -0.34375 0.578125 -0.453125q0.359375 -0.109375 0.765625 -0.015625q0.40625 0.09375 0.765625 0.4375l7.921875 6.328125l-0.78125 0l0 -6.0q0 -1.140625 1.125 -1.140625q0.53125 0 0.828125 0.296875q0.296875 0.296875 0.296875 0.84375l0 7.515625zm3.90625 -12.485336q0.4375 0.265625 0.546875 0.71875q0.109375 0.4375 -0.078125 0.84375q-0.171875 0.40625 -0.609375 0.59375q-0.421875 0.171875 -1.109375 -0.0625q-1.546875 -0.59375 -3.015625 -0.953125q-1.46875 -0.359375 -2.921875 -0.53125q-1.46875 -0.1875 -3.03125 -0.1875q-1.5625 0 -3.015625 0.1875q-1.46875 0.1875 -2.9375 0.5625q-1.46875 0.375 -3.015625 0.921875q-0.671875 0.234375 -1.109375 0.046875q-0.453125 -0.1875 -0.625 -0.59375q-0.171875 -0.40625 -0.0625 -0.84375q0.109375 -0.4375 0.546875 -0.703125q2.328125 -1.453125 4.953125 -2.125q2.609375 -0.671875 5.265625 -0.671875q1.78125 0 3.53125 0.296875q1.75 0.296875 3.4375 0.90625q1.703125 0.609375 3.25 1.59375z" fill-rule="nonzero"/><path fill="#000000" fill-opacity="0.0" d="m677.1811 844.9055l245.63782 0l0 26.519653l-245.63782 0z" fill-rule="evenodd"/><path fill="#cccccc" d="m709.36304 877.1799q-2.640625 0 -4.53125 -1.0625q-1.875 -1.0625 -2.890625 -3.015625q-1.0 -1.96875 -1.0 -4.625q0 -2.0 0.578125 -3.59375q0.578125 -1.59375 1.65625 -2.734375q1.078125 -1.140625 2.640625 -1.75q1.578125 -0.609375 3.546875 -0.609375q1.328125 0 2.59375 0.34375q1.265625 0.328125 2.234375 0.953125q0.5 0.3125 0.671875 0.765625q0.171875 0.4375 0.0625 0.859375q-0.09375 0.40625 -0.390625 0.703125q-0.296875 0.28125 -0.75 0.328125q-0.4375 0.03125 -0.96875 -0.3125q-0.734375 -0.46875 -1.609375 -0.6875q-0.859375 -0.21875 -1.75 -0.21875q-1.703125 0 -2.875 0.703125q-1.171875 0.6875 -1.78125 2.015625q-0.59375 1.3125 -0.59375 3.234375q0 1.890625 0.59375 3.234375q0.609375 1.34375 1.78125 2.046875q1.171875 0.6875 2.875 0.6875q0.921875 0 1.796875 -0.21875q0.890625 -0.234375 1.6875 -0.71875q0.53125 -0.3125 0.9375 -0.265625q0.421875 0.03125 0.703125 0.296875q0.296875 0.265625 0.390625 0.65625q0.109375 0.390625 -0.046875 0.8125q-0.140625 0.421875 -0.5625 0.734375q-0.96875 0.703125 -2.296875 1.078125q-1.328125 0.359375 -2.703125 0.359375zm12.667419 0q-1.8125 0 -3.15625 -0.734375q-1.34375 -0.75 -2.09375 -2.125q-0.75 -1.390625 -0.75 -3.25q0 -1.421875 0.421875 -2.53125q0.421875 -1.125 1.21875 -1.921875q0.796875 -0.8125 1.890625 -1.21875q1.109375 -0.421875 2.46875 -0.421875q1.828125 0 3.171875 0.75q1.34375 0.734375 2.078125 2.109375q0.75 1.359375 0.75 3.234375q0 1.40625 -0.421875 2.546875q-0.40625 1.125 -1.203125 1.9375q-0.796875 0.796875 -1.90625 1.21875q-1.09375 0.40625 -2.46875 0.40625zm0 -2.28125q0.890625 0 1.5625 -0.421875q0.671875 -0.4375 1.046875 -1.28125q0.375 -0.859375 0.375 -2.125q0 -1.921875 -0.828125 -2.875q-0.8125 -0.953125 -2.15625 -0.953125q-0.875 0 -1.546875 0.421875q-0.671875 0.421875 -1.046875 1.28125q-0.375 0.84375 -0.375 2.125q0 1.890625 0.8125 2.859375q0.8125 0.96875 2.15625 0.96875zm10.011475 2.234375q-0.71875 0 -1.109375 -0.390625q-0.375 -0.390625 -0.375 -1.140625l0 -9.078125q0 -0.734375 0.375 -1.109375q0.390625 -0.390625 1.09375 -0.390625q0.6875 0 1.0625 0.390625q0.390625 0.375 0.390625 1.109375l0 1.765625l-0.265625 -0.734375q0.484375 -1.1875 1.484375 -1.875q1.015625 -0.703125 2.40625 -0.703125q1.421875 0 2.328125 0.671875q0.921875 0.671875 1.28125 2.0625l-0.34375 0q0.484375 -1.28125 1.578125 -2.0q1.109375 -0.734375 2.546875 -0.734375q1.34375 0 2.21875 0.53125q0.875 0.515625 1.3125 1.59375q0.4375 1.0625 0.4375 2.6875l0 5.8125q0 0.75 -0.40625 1.140625q-0.390625 0.390625 -1.109375 0.390625q-0.71875 0 -1.109375 -0.390625q-0.375 -0.390625 -0.375 -1.140625l0 -5.6875q0 -1.34375 -0.453125 -1.96875q-0.4375 -0.625 -1.5 -0.625q-1.171875 0 -1.84375 0.828125q-0.671875 0.828125 -0.671875 2.296875l0 5.15625q0 0.75 -0.390625 1.140625q-0.375 0.390625 -1.09375 0.390625q-0.71875 0 -1.125 -0.390625q-0.390625 -0.390625 -0.390625 -1.140625l0 -5.6875q0 -1.34375 -0.453125 -1.96875q-0.4375 -0.625 -1.46875 -0.625q-1.171875 0 -1.84375 0.828125q-0.671875 0.828125 -0.671875 2.296875l0 5.15625q0 1.53125 -1.515625 1.53125zm21.001099 4.328125q-0.71875 0 -1.109375 -0.390625q-0.375 -0.375 -0.375 -1.125l0 -13.421875q0 -0.734375 0.375 -1.109375q0.390625 -0.390625 1.09375 -0.390625q0.71875 0 1.09375 0.390625q0.390625 0.375 0.390625 1.109375l0 1.875l-0.265625 -0.71875q0.359375 -1.21875 1.46875 -1.953125q1.125 -0.75 2.609375 -0.75q1.53125 0 2.6875 0.75q1.171875 0.734375 1.8125 2.09375q0.65625 1.34375 0.65625 3.25q0 1.859375 -0.65625 3.25q-0.640625 1.375 -1.796875 2.125q-1.140625 0.734375 -2.703125 0.734375q-1.46875 0 -2.578125 -0.71875q-1.09375 -0.734375 -1.484375 -1.921875l0.296875 0l0 5.40625q0 0.75 -0.40625 1.125q-0.390625 0.390625 -1.109375 0.390625zm4.4375 -6.5625q0.890625 0 1.5625 -0.421875q0.671875 -0.4375 1.046875 -1.28125q0.375 -0.859375 0.375 -2.125q0 -1.921875 -0.828125 -2.875q-0.8125 -0.953125 -2.15625 -0.953125q-0.890625 0 -1.5625 0.421875q-0.671875 0.421875 -1.046875 1.28125q-0.359375 0.84375 -0.359375 2.125q0 1.890625 0.8125 2.859375q0.8125 0.96875 2.15625 0.96875zm10.009338 2.234375q-0.734375 0 -1.140625 -0.390625q-0.390625 -0.390625 -0.390625 -1.140625l0 -9.078125q0 -0.734375 0.375 -1.109375q0.390625 -0.390625 1.09375 -0.390625q0.6875 0 1.0625 0.390625q0.390625 0.375 0.390625 1.109375l0 1.515625l-0.234375 0q0.328125 -1.4375 1.3125 -2.171875q0.984375 -0.75 2.625 -0.890625q0.5 -0.0625 0.796875 0.25q0.296875 0.296875 0.359375 0.921875q0.046875 0.59375 -0.28125 0.96875q-0.328125 0.375 -0.96875 0.4375l-0.53125 0.046875q-1.46875 0.15625 -2.21875 0.90625q-0.734375 0.75 -0.734375 2.125l0 4.96875q0 0.75 -0.390625 1.140625q-0.375 0.390625 -1.125 0.390625zm13.465942 0.046875q-1.984375 0 -3.4375 -0.734375q-1.4375 -0.75 -2.21875 -2.109375q-0.78125 -1.375 -0.78125 -3.25q0 -1.828125 0.75 -3.1875q0.765625 -1.375 2.09375 -2.140625q1.34375 -0.78125 3.046875 -0.78125q1.25 0 2.234375 0.40625q1.0 0.40625 1.703125 1.171875q0.71875 0.765625 1.078125 1.859375q0.375 1.09375 0.375 2.453125q0 0.4375 -0.296875 0.671875q-0.296875 0.21875 -0.84375 0.21875l-7.703125 0l0 -1.71875l6.734375 0l-0.375 0.359375q0 -1.109375 -0.328125 -1.84375q-0.328125 -0.75 -0.9375 -1.140625q-0.609375 -0.40625 -1.53125 -0.40625q-1.0 0 -1.71875 0.46875q-0.703125 0.46875 -1.078125 1.328125q-0.359375 0.84375 -0.359375 2.015625l0 0.171875q0 1.96875 0.921875 2.9375q0.921875 0.96875 2.71875 0.96875q0.625 0 1.40625 -0.15625q0.78125 -0.15625 1.46875 -0.53125q0.515625 -0.296875 0.890625 -0.25q0.390625 0.03125 0.609375 0.28125q0.234375 0.234375 0.28125 0.578125q0.046875 0.34375 -0.140625 0.703125q-0.171875 0.359375 -0.609375 0.625q-0.828125 0.53125 -1.921875 0.78125q-1.09375 0.25 -2.03125 0.25zm11.523621 0q-1.03125 0 -2.1875 -0.21875q-1.15625 -0.203125 -2.0625 -0.734375q-0.390625 -0.234375 -0.546875 -0.5625q-0.15625 -0.328125 -0.125 -0.640625q0.046875 -0.328125 0.25 -0.5625q0.203125 -0.25 0.53125 -0.3125q0.328125 -0.078125 0.703125 0.109375q0.96875 0.453125 1.796875 0.640625q0.84375 0.171875 1.65625 0.171875q1.15625 0 1.71875 -0.390625q0.5625 -0.390625 0.5625 -1.046875q0 -0.546875 -0.375 -0.84375q-0.359375 -0.3125 -1.109375 -0.453125l-2.40625 -0.453125q-1.484375 -0.296875 -2.265625 -1.09375q-0.78125 -0.796875 -0.78125 -2.078125q0 -1.15625 0.640625 -1.984375q0.640625 -0.84375 1.765625 -1.296875q1.125 -0.453125 2.59375 -0.453125q1.046875 0 1.96875 0.234375q0.9375 0.21875 1.796875 0.6875q0.359375 0.203125 0.484375 0.515625q0.140625 0.3125 0.0625 0.640625q-0.0625 0.3125 -0.28125 0.5625q-0.21875 0.25 -0.546875 0.3125q-0.3125 0.0625 -0.734375 -0.125q-0.734375 -0.390625 -1.421875 -0.546875q-0.6875 -0.171875 -1.3125 -0.171875q-1.171875 0 -1.734375 0.40625q-0.5625 0.40625 -0.5625 1.078125q0 0.5 0.328125 0.84375q0.34375 0.328125 1.03125 0.453125l2.40625 0.453125q1.5625 0.28125 2.359375 1.0625q0.8125 0.765625 0.8125 2.0625q0 1.75 -1.375 2.75q-1.359375 0.984375 -3.640625 0.984375zm11.711914 0q-1.03125 0 -2.1875 -0.21875q-1.15625 -0.203125 -2.0625 -0.734375q-0.390625 -0.234375 -0.546875 -0.5625q-0.15625 -0.328125 -0.125 -0.640625q0.046875 -0.328125 0.25 -0.5625q0.203125 -0.25 0.53125 -0.3125q0.328125 -0.078125 0.703125 0.109375q0.96875 0.453125 1.796875 0.640625q0.84375 0.171875 1.65625 0.171875q1.15625 0 1.71875 -0.390625q0.5625 -0.390625 0.5625 -1.046875q0 -0.546875 -0.375 -0.84375q-0.359375 -0.3125 -1.109375 -0.453125l-2.40625 -0.453125q-1.484375 -0.296875 -2.265625 -1.09375q-0.78125 -0.796875 -0.78125 -2.078125q0 -1.15625 0.640625 -1.984375q0.640625 -0.84375 1.765625 -1.296875q1.125 -0.453125 2.59375 -0.453125q1.046875 0 1.96875 0.234375q0.9375 0.21875 1.796875 0.6875q0.359375 0.203125 0.484375 0.515625q0.140625 0.3125 0.0625 0.640625q-0.0625 0.3125 -0.28125 0.5625q-0.21875 0.25 -0.546875 0.3125q-0.3125 0.0625 -0.734375 -0.125q-0.734375 -0.390625 -1.421875 -0.546875q-0.6875 -0.171875 -1.3125 -0.171875q-1.171875 0 -1.734375 0.40625q-0.5625 0.40625 -0.5625 1.078125q0 0.5 0.328125 0.84375q0.34375 0.328125 1.03125 0.453125l2.40625 0.453125q1.5625 0.28125 2.359375 1.0625q0.8125 0.765625 0.8125 2.0625q0 1.75 -1.375 2.75q-1.359375 0.984375 -3.640625 0.984375zm13.19635 0q-1.984375 0 -3.4375 -0.734375q-1.4375 -0.75 -2.21875 -2.109375q-0.78125 -1.375 -0.78125 -3.25q0 -1.828125 0.75 -3.1875q0.765625 -1.375 2.09375 -2.140625q1.34375 -0.78125 3.046875 -0.78125q1.25 0 2.234375 0.40625q1.0 0.40625 1.703125 1.171875q0.71875 0.765625 1.078125 1.859375q0.375 1.09375 0.375 2.453125q0 0.4375 -0.296875 0.671875q-0.296875 0.21875 -0.84375 0.21875l-7.703125 0l0 -1.71875l6.734375 0l-0.375 0.359375q0 -1.109375 -0.328125 -1.84375q-0.328125 -0.75 -0.9375 -1.140625q-0.609375 -0.40625 -1.53125 -0.40625q-1.0 0 -1.71875 0.46875q-0.703125 0.46875 -1.078125 1.328125q-0.359375 0.84375 -0.359375 2.015625l0 0.171875q0 1.96875 0.921875 2.9375q0.921875 0.96875 2.71875 0.96875q0.625 0 1.40625 -0.15625q0.78125 -0.15625 1.46875 -0.53125q0.515625 -0.296875 0.890625 -0.25q0.390625 0.03125 0.609375 0.28125q0.234375 0.234375 0.28125 0.578125q0.046875 0.34375 -0.140625 0.703125q-0.171875 0.359375 -0.609375 0.625q-0.828125 0.53125 -1.921875 0.78125q-1.09375 0.25 -2.03125 0.25zm11.742371 0q-1.546875 0 -2.71875 -0.734375q-1.15625 -0.75 -1.8125 -2.125q-0.640625 -1.390625 -0.640625 -3.25q0 -1.90625 0.640625 -3.25q0.65625 -1.359375 1.8125 -2.09375q1.171875 -0.75 2.71875 -0.75q1.453125 0 2.546875 0.71875q1.09375 0.71875 1.484375 1.890625l-0.265625 0l0 -6.234375q0 -0.75 0.375 -1.125q0.390625 -0.390625 1.109375 -0.390625q0.71875 0 1.109375 0.390625q0.40625 0.375 0.40625 1.125l0 14.25q0 0.75 -0.390625 1.140625q-0.375 0.390625 -1.09375 0.390625q-0.734375 0 -1.125 -0.390625q-0.375 -0.390625 -0.375 -1.140625l0 -1.875l0.265625 0.71875q-0.359375 1.25 -1.46875 2.0q-1.09375 0.734375 -2.578125 0.734375zm0.828125 -2.28125q0.890625 0 1.5625 -0.421875q0.671875 -0.4375 1.046875 -1.28125q0.375 -0.859375 0.375 -2.125q0 -1.921875 -0.828125 -2.875q-0.8125 -0.953125 -2.15625 -0.953125q-0.875 0 -1.546875 0.421875q-0.671875 0.421875 -1.046875 1.28125q-0.375 0.84375 -0.375 2.125q0 1.890625 0.8125 2.859375q0.8125 0.96875 2.15625 0.96875zm21.46643 2.234375q-0.75 0 -1.15625 -0.40625q-0.390625 -0.421875 -0.390625 -1.171875l0 -12.96875l-4.671875 0q-0.625 0 -0.984375 -0.34375q-0.34375 -0.34375 -0.34375 -0.9375q0 -0.625 0.34375 -0.953125q0.359375 -0.328125 0.984375 -0.328125l12.4375 0q0.609375 0 0.953125 0.328125q0.359375 0.328125 0.359375 0.953125q0 0.59375 -0.359375 0.9375q-0.34375 0.34375 -0.953125 0.34375l-4.6875 0l0 12.96875q0 0.75 -0.390625 1.171875q-0.375 0.40625 -1.140625 0.40625zm11.802063 -0.015625q-0.71875 0 -1.109375 -0.4375q-0.375 -0.4375 -0.375 -1.203125l0 -8.796875q0 -0.796875 0.375 -1.21875q0.390625 -0.421875 1.109375 -0.421875q0.71875 0 1.109375 0.421875q0.40625 0.421875 0.40625 1.21875l0 8.796875q0 0.765625 -0.390625 1.203125q-0.375 0.4375 -1.125 0.4375zm0 -14.3125q-0.84375 0 -1.3125 -0.40625q-0.46875 -0.421875 -0.46875 -1.171875q0 -0.765625 0.46875 -1.171875q0.46875 -0.40625 1.3125 -0.40625q0.859375 0 1.3125 0.40625q0.46875 0.40625 0.46875 1.171875q0 0.75 -0.46875 1.171875q-0.453125 0.40625 -1.3125 0.40625zm6.16687 14.328125q-0.71875 0 -1.109375 -0.390625q-0.375 -0.390625 -0.375 -1.140625l0 -9.078125q0 -0.734375 0.375 -1.109375q0.390625 -0.390625 1.09375 -0.390625q0.6875 0 1.0625 0.390625q0.390625 0.375 0.390625 1.109375l0 1.765625l-0.265625 -0.734375q0.484375 -1.1875 1.484375 -1.875q1.015625 -0.703125 2.40625 -0.703125q1.421875 0 2.328125 0.671875q0.921875 0.671875 1.28125 2.0625l-0.34375 0q0.484375 -1.28125 1.578125 -2.0q1.109375 -0.734375 2.546875 -0.734375q1.34375 0 2.21875 0.53125q0.875 0.515625 1.3125 1.59375q0.4375 1.0625 0.4375 2.6875l0 5.8125q0 0.75 -0.40625 1.140625q-0.390625 0.390625 -1.109375 0.390625q-0.71875 0 -1.109375 -0.390625q-0.375 -0.390625 -0.375 -1.140625l0 -5.6875q0 -1.34375 -0.453125 -1.96875q-0.4375 -0.625 -1.5 -0.625q-1.171875 0 -1.84375 0.828125q-0.671875 0.828125 -0.671875 2.296875l0 5.15625q0 0.75 -0.390625 1.140625q-0.375 0.390625 -1.09375 0.390625q-0.71875 0 -1.125 -0.390625q-0.390625 -0.390625 -0.390625 -1.140625l0 -5.6875q0 -1.34375 -0.453125 -1.96875q-0.4375 -0.625 -1.46875 -0.625q-1.171875 0 -1.84375 0.828125q-0.671875 0.828125 -0.671875 2.296875l0 5.15625q0 1.53125 -1.515625 1.53125zm25.297974 0.046875q-1.984375 0 -3.4375 -0.734375q-1.4375 -0.75 -2.21875 -2.109375q-0.78125 -1.375 -0.78125 -3.25q0 -1.828125 0.75 -3.1875q0.765625 -1.375 2.09375 -2.140625q1.34375 -0.78125 3.046875 -0.78125q1.25 0 2.234375 0.40625q1.0 0.40625 1.703125 1.171875q0.71875 0.765625 1.078125 1.859375q0.375 1.09375 0.375 2.453125q0 0.4375 -0.296875 0.671875q-0.296875 0.21875 -0.84375 0.21875l-7.703125 0l0 -1.71875l6.734375 0l-0.375 0.359375q0 -1.109375 -0.328125 -1.84375q-0.328125 -0.75 -0.9375 -1.140625q-0.609375 -0.40625 -1.53125 -0.40625q-1.0 0 -1.71875 0.46875q-0.703125 0.46875 -1.078125 1.328125q-0.359375 0.84375 -0.359375 2.015625l0 0.171875q0 1.96875 0.921875 2.9375q0.921875 0.96875 2.71875 0.96875q0.625 0 1.40625 -0.15625q0.78125 -0.15625 1.46875 -0.53125q0.515625 -0.296875 0.890625 -0.25q0.390625 0.03125 0.609375 0.28125q0.234375 0.234375 0.28125 0.578125q0.046875 0.34375 -0.140625 0.703125q-0.171875 0.359375 -0.609375 0.625q-0.828125 0.53125 -1.921875 0.78125q-1.09375 0.25 -2.03125 0.25z" fill-rule="nonzero"/><path fill="#000000" fill-opacity="0.0" d="m10.748032 792.3963l62.708664 0l0 43.055115l-62.708664 0z" fill-rule="evenodd"/><path fill="#cccccc" d="m42.09923 819.50385q-2.328125 0 -3.5625 -1.765625q-1.234375 -1.765625 -1.234375 -5.03125q0 -2.203125 0.546875 -3.703125q0.5625 -1.5 1.625 -2.265625q1.078125 -0.765625 2.625 -0.765625q2.3593788 0 3.5781288 1.71875q1.21875 1.71875 1.21875 5.0q0 2.1875 -0.546875 3.703125q-0.546875 1.515625 -1.625 2.3125q-1.0625 0.796875 -2.6250038 0.796875zm0 -1.953125q1.2656288 0 1.8750038 -1.171875q0.609375 -1.1875 0.609375 -3.6875q0 -2.5 -0.609375 -3.625q-0.609375 -1.125 -1.8750038 -1.125q-1.25 0 -1.875 1.125q-0.609375 1.125 -0.609375 3.625q0 2.5 0.609375 3.6875q0.625 1.171875 1.875 1.171875z" fill-rule="nonzero"/><path fill="#000000" fill-opacity="0.0" d="m0 394.47507l62.70866 0l0 43.055115l-62.70866 0z" fill-rule="evenodd"/><path fill="#cccccc" d="m25.863699 421.58255q-0.984375 0 -2.015625 -0.25q-1.015625 -0.265625 -1.875 -0.8125q-0.359375 -0.21875 -0.484375 -0.53125q-0.109375 -0.3125 -0.046875 -0.609375q0.0625 -0.3125 0.265625 -0.53125q0.21875 -0.21875 0.53125 -0.25q0.3125 -0.03125 0.6875 0.171875q0.6875 0.390625 1.390625 0.59375q0.71875 0.203125 1.515625 0.203125q0.78125 0 1.34375 -0.28125q0.5625 -0.28125 0.859375 -0.78125q0.296875 -0.5 0.296875 -1.171875q0 -1.046875 -0.640625 -1.6875q-0.625 -0.65625 -1.734375 -0.65625q-0.59375 0 -1.15625 0.203125q-0.5625 0.203125 -1.09375 0.6875q-0.171875 0.140625 -0.4375 0.28125q-0.25 0.140625 -0.546875 0.140625q-0.46875 0 -0.71875 -0.234375q-0.234375 -0.25 -0.234375 -0.671875l0 -6.109375q0 -0.5 0.265625 -0.765625q0.265625 -0.28125 0.78125 -0.28125l6.125 0q0.515625 0 0.78125 0.25q0.265625 0.25 0.265625 0.75q0 0.453125 -0.265625 0.71875q-0.265625 0.265625 -0.78125 0.265625l-4.84375 0l0 4.171875l-0.609375 0q0.484375 -0.65625 1.28125 -1.0q0.796875 -0.359375 1.75 -0.359375q1.25 0 2.171875 0.53125q0.921875 0.53125 1.4375 1.484375q0.515625 0.9375 0.515625 2.1875q0 1.28125 -0.578125 2.265625q-0.578125 0.96875 -1.65625 1.53125q-1.0625 0.546875 -2.546875 0.546875zm11.084383 0q-2.328125 0 -3.5625 -1.765625q-1.234375 -1.765625 -1.234375 -5.03125q0 -2.203125 0.546875 -3.703125q0.5625 -1.5 1.625 -2.265625q1.078125 -0.765625 2.625 -0.765625q2.359375 0 3.578125 1.71875q1.21875 1.71875 1.21875 5.0q0 2.1875 -0.546875 3.703125q-0.546875 1.515625 -1.625 2.3125q-1.0625 0.796875 -2.625 0.796875zm0 -1.953125q1.265625 0 1.875 -1.171875q0.609375 -1.1875 0.609375 -3.6875q0 -2.5 -0.609375 -3.625q-0.609375 -1.125 -1.875 -1.125q-1.25 0 -1.875 1.125q-0.609375 1.125 -0.609375 3.625q0 2.5 0.609375 3.6875q0.625 1.171875 1.875 1.171875z" fill-rule="nonzero"/><path fill="#000000" fill-opacity="0.0" d="m10.748032 24.401575l62.708664 0l0 43.055122l-62.708664 0z" fill-rule="evenodd"/><path fill="#cccccc" d="m28.217978 51.32157q-0.484375 0 -0.75 -0.265625q-0.265625 -0.28125 -0.265625 -0.734375q0 -0.5 0.265625 -0.734375q0.265625 -0.25 0.75 -0.25l2.09375 0l0 -9.15625l1.15625 0l-2.734375 1.65625q-0.359375 0.21875 -0.671875 0.171875q-0.3125 -0.046875 -0.53125 -0.265625q-0.203125 -0.21875 -0.28125 -0.515625q-0.078125 -0.296875 0.046875 -0.59375q0.125 -0.3125 0.484375 -0.53125l2.5625 -1.546875q0.375 -0.21875 0.75 -0.375q0.375 -0.15625 0.6875 -0.15625q0.3906231 0 0.6562481 0.21875q0.265625 0.203125 0.265625 0.6875l0 10.40625l1.90625 0q0.484375 0 0.75 0.25q0.265625 0.234375 0.265625 0.734375q0 0.484375 -0.265625 0.75q-0.265625 0.25 -0.75 0.25l-6.390623 0zm13.881254 0.1875q-2.328125 0 -3.5625 -1.765625q-1.234375 -1.765625 -1.234375 -5.03125q0 -2.203125 0.546875 -3.703125q0.5625 -1.5 1.625 -2.265625q1.078125 -0.765625 2.625 -0.765625q2.3593788 0 3.5781288 1.71875q1.21875 1.71875 1.21875 5.0q0 2.1875 -0.546875 3.703125q-0.546875 1.515625 -1.625 2.3125q-1.0625 0.796875 -2.6250038 0.796875zm0 -1.953125q1.2656288 0 1.8750038 -1.171875q0.609375 -1.1875 0.609375 -3.6875q0 -2.5 -0.609375 -3.625q-0.609375 -1.125 -1.8750038 -1.125q-1.25 0 -1.875 1.125q-0.609375 1.125 -0.609375 3.625q0 2.5 0.609375 3.6875q0.625 1.171875 1.875 1.171875zm11.19376 1.953125q-2.328125 0 -3.5625 -1.765625q-1.234375 -1.765625 -1.234375 -5.03125q0 -2.203125 0.546875 -3.703125q0.5625 -1.5 1.625 -2.265625q1.078125 -0.765625 2.625 -0.765625q2.359375 0 3.578125 1.71875q1.21875 1.71875 1.21875 5.0q0 2.1875 -0.546875 3.703125q-0.546875 1.515625 -1.625 2.3125q-1.0625 0.796875 -2.625 0.796875zm0 -1.953125q1.265625 0 1.875 -1.171875q0.609375 -1.1875 0.609375 -3.6875q0 -2.5 -0.609375 -3.625q-0.609375 -1.125 -1.875 -1.125q-1.25 0 -1.875 1.125q-0.609375 1.125 -0.609375 3.625q0 2.5 0.609375 3.6875q0.625 1.171875 1.875 1.171875z" fill-rule="nonzero"/><path fill="#91ffe4" fill-opacity="0.6955" d="m294.85303 317.96683c-1.8189087 36.165466 -1.8189087 59.414093 -0.51968384 83.87921c1.2991943 24.465118 3.6478577 45.422577 8.314941 62.91147c4.6671143 17.488861 12.170166 34.113342 19.687683 42.02179c7.5174866 7.9084473 20.025787 9.348206 25.417328 5.428955c5.39151 -3.9193115 9.24234 -20.804077 6.931732 -28.944733c-2.3105774 -8.1406555 -14.4409485 -6.9344482 -20.795258 -19.8992c-6.3543396 -12.964783 -12.816711 -33.352386 -17.330719 -57.889404c-4.5140076 -24.537018 -7.8678894 -52.56253 -9.753265 -89.332794c-1.8854065 -36.770264 0.43304443 -131.59296 -1.559082 -131.28883c-1.992096 0.30410767 -8.574799 96.948074 -10.393677 133.11354z" fill-rule="evenodd"/><path stroke="#000000" stroke-width="1.0" stroke-linejoin="round" stroke-linecap="butt" d="m294.85303 317.96683c-1.8189087 36.165466 -1.8189087 59.414093 -0.51968384 83.87921c1.2991943 24.465118 3.6478577 45.422577 8.314941 62.91147c4.6671143 17.488861 12.170166 34.113342 19.687683 42.02179c7.5174866 7.9084473 20.025787 9.348206 25.417328 5.428955c5.39151 -3.9193115 9.24234 -20.804077 6.931732 -28.944733c-2.3105774 -8.1406555 -14.4409485 -6.9344482 -20.795258 -19.8992c-6.3543396 -12.964783 -12.816711 -33.352386 -17.330719 -57.889404c-4.5140076 -24.537018 -7.8678894 -52.56253 -9.753265 -89.332794c-1.8854065 -36.770264 0.43304443 -131.59296 -1.559082 -131.28883c-1.992096 0.30410767 -8.574799 96.948074 -10.393677 133.11354z" fill-rule="evenodd"/><path fill="#91ffe4" fill-opacity="0.6955" d="m451.80316 408.16302c-1.8189087 19.551697 -1.8189087 32.12033 -0.51968384 45.34662c1.2991943 13.226288 3.6478577 24.556274 8.314941 34.011078c4.6671143 9.454803 12.170166 18.442291 19.687683 22.717743c7.5174866 4.2754517 20.025787 5.053833 25.417297 2.9349976c5.3915405 -2.118866 9.24234 -11.24707 6.9317627 -15.648041c-2.3105774 -4.401001 -14.4409485 -3.7489014 -20.795258 -10.757874c-6.3543396 -7.0090027 -12.816711 -18.030914 -17.330719 -31.296082c-4.5140076 -13.265167 -7.8678894 -28.41626 -9.753265 -48.29492c-1.8854065 -19.878693 0.43304443 -71.14154 -1.559082 -70.97714c-1.9921265 0.16442871 -8.574799 52.411896 -10.393677 71.96362z" fill-rule="evenodd"/><path stroke="#000000" stroke-width="1.0" stroke-linejoin="round" stroke-linecap="butt" d="m451.80316 408.16302c-1.8189087 19.551697 -1.8189087 32.12033 -0.51968384 45.34662c1.2991943 13.226288 3.6478577 24.556274 8.314941 34.011078c4.6671143 9.454803 12.170166 18.442291 19.687683 22.717743c7.5174866 4.2754517 20.025787 5.053833 25.417297 2.9349976c5.3915405 -2.118866 9.24234 -11.24707 6.9317627 -15.648041c-2.3105774 -4.401001 -14.4409485 -3.7489014 -20.795258 -10.757874c-6.3543396 -7.0090027 -12.816711 -18.030914 -17.330719 -31.296082c-4.5140076 -13.265167 -7.8678894 -28.41626 -9.753265 -48.29492c-1.8854065 -19.878693 0.43304443 -71.14154 -1.559082 -70.97714c-1.9921265 0.16442871 -8.574799 52.411896 -10.393677 71.96362z" fill-rule="evenodd"/><path fill="#91ffe4" fill-opacity="0.6955" d="m608.7533 375.80582c-1.8189087 25.513062 -1.8189087 41.91391 -0.51971436 59.172913c1.2992554 17.259033 3.6478882 32.04355 8.315002 44.381165c4.667053 12.337585 12.170166 24.0654 19.687622 29.64444c7.517517 5.5790405 20.025818 6.5947266 25.417358 3.829834c5.3914795 -2.764862 9.24231 -14.67627 6.9317627 -20.419128c-2.310608 -5.742859 -14.440979 -4.8919373 -20.795288 -14.037994c-6.35437 -9.146057 -12.816711 -23.528564 -17.33075 -40.838318c-4.513977 -17.309723 -7.867859 -37.080444 -9.753235 -63.020172c-1.885437 -25.939728 0.43304443 -92.832794 -1.559082 -92.618256c-1.9921265 0.21456909 -8.574768 68.392426 -10.393677 93.90552z" fill-rule="evenodd"/><path stroke="#000000" stroke-width="1.0" stroke-linejoin="round" stroke-linecap="butt" d="m608.7533 375.80582c-1.8189087 25.513062 -1.8189087 41.91391 -0.51971436 59.172913c1.2992554 17.259033 3.6478882 32.04355 8.315002 44.381165c4.667053 12.337585 12.170166 24.0654 19.687622 29.64444c7.517517 5.5790405 20.025818 6.5947266 25.417358 3.829834c5.3914795 -2.764862 9.24231 -14.67627 6.9317627 -20.419128c-2.310608 -5.742859 -14.440979 -4.8919373 -20.795288 -14.037994c-6.35437 -9.146057 -12.816711 -23.528564 -17.33075 -40.838318c-4.513977 -17.309723 -7.867859 -37.080444 -9.753235 -63.020172c-1.885437 -25.939728 0.43304443 -92.832794 -1.559082 -92.618256c-1.9921265 0.21456909 -8.574768 68.392426 -10.393677 93.90552z" fill-rule="evenodd"/><path fill="#91ffe4" fill-opacity="0.6955" d="m770.8458 382.83423c-2.3043823 23.656067 -2.3043823 38.86313 -0.65838623 54.865936c1.6459961 16.002777 4.62146 29.711212 10.534241 41.150787c5.9127197 11.439575 15.418396 22.313751 24.94226 27.486725c9.523926 5.1729736 25.370728 6.1147156 32.201233 3.551117c6.8305054 -2.5636597 11.709106 -13.608063 8.78186 -18.932922c-2.9273071 -5.3248596 -18.295227 -4.535858 -26.345581 -13.016205c-8.050293 -8.480347 -16.237488 -21.81601 -21.956238 -37.865845c-5.718811 -16.049835 -9.967834 -34.38147 -12.356445 -58.433167c-2.3886108 -24.051666 0.548645 -86.075806 -1.9751587 -85.87686c-2.5238037 0.19891357 -10.863403 63.414368 -13.167786 87.070435z" fill-rule="evenodd"/><path stroke="#000000" stroke-width="1.0" stroke-linejoin="round" stroke-linecap="butt" d="m770.8458 382.83423c-2.3043823 23.656067 -2.3043823 38.86313 -0.65838623 54.865936c1.6459961 16.002777 4.62146 29.711212 10.534241 41.150787c5.9127197 11.439575 15.418396 22.313751 24.94226 27.486725c9.523926 5.1729736 25.370728 6.1147156 32.201233 3.551117c6.8305054 -2.5636597 11.709106 -13.608063 8.78186 -18.932922c-2.9273071 -5.3248596 -18.295227 -4.535858 -26.345581 -13.016205c-8.050293 -8.480347 -16.237488 -21.81601 -21.956238 -37.865845c-5.718811 -16.049835 -9.967834 -34.38147 -12.356445 -58.433167c-2.3886108 -24.051666 0.548645 -86.075806 -1.9751587 -85.87686c-2.5238037 0.19891357 -10.863403 63.414368 -13.167786 87.070435z" fill-rule="evenodd"/><path fill="#91ffe4" fill-opacity="0.6955" d="m947.0525 409.69055c-1.8189087 18.710999 -1.8189087 30.739166 -0.5196533 43.396698c1.2991943 12.657562 3.6478271 23.500366 8.314941 32.548584c4.6671143 9.048248 12.170166 17.649292 19.687683 21.740875c7.517456 4.091614 20.025757 4.836487 25.417297 2.8087769c5.3915405 -2.0277405 9.242371 -10.763397 6.9317627 -14.975159c-2.310608 -4.211731 -14.440979 -3.587677 -20.795288 -10.295288c-6.354309 -6.7075806 -12.816711 -17.255554 -17.330688 -29.950317c-4.514038 -12.694733 -7.86792 -27.194336 -9.753296 -46.2182c-1.885376 -19.023895 0.43304443 -68.08243 -1.559082 -67.92508c-1.9921265 0.15734863 -8.574768 50.158142 -10.393677 68.86911z" fill-rule="evenodd"/><path stroke="#000000" stroke-width="1.0" stroke-linejoin="round" stroke-linecap="butt" d="m947.0525 409.69055c-1.8189087 18.710999 -1.8189087 30.739166 -0.5196533 43.396698c1.2991943 12.657562 3.6478271 23.500366 8.314941 32.548584c4.6671143 9.048248 12.170166 17.649292 19.687683 21.740875c7.517456 4.091614 20.025757 4.836487 25.417297 2.8087769c5.3915405 -2.0277405 9.242371 -10.763397 6.9317627 -14.975159c-2.310608 -4.211731 -14.440979 -3.587677 -20.795288 -10.295288c-6.354309 -6.7075806 -12.816711 -17.255554 -17.330688 -29.950317c-4.514038 -12.694733 -7.86792 -27.194336 -9.753296 -46.2182c-1.885376 -19.023895 0.43304443 -68.08243 -1.559082 -67.92508c-1.9921265 0.15734863 -8.574768 50.158142 -10.393677 68.86911z" fill-rule="evenodd"/><path fill="#91ffe4" fill-opacity="0.6955" d="m1137.5076 375.8184c-1.8188477 24.949707 -1.8188477 40.988617 -0.5196533 57.86615c1.2991943 16.877502 3.6478271 31.334198 8.314941 43.398956c4.6671143 12.064728 8.966797 22.23883 19.687622 28.989502c10.720947 6.7506714 35.65747 14.794373 44.637817 11.514404c8.980347 -3.2799683 14.758179 -24.283447 9.244141 -31.194214c-5.514038 -6.9107666 -32.38501 -1.9024353 -42.328125 -10.270325c-9.943115 -8.367889 -12.81665 -23.009644 -17.330688 -39.93701c-4.514038 -16.927399 -7.86792 -36.26071 -9.753296 -61.62729c-1.885376 -25.366577 0.43310547 -90.782166 -1.559082 -90.572205c-1.9920654 0.20999146 -8.574707 66.882355 -10.393677 91.83203z" fill-rule="evenodd"/><path stroke="#000000" stroke-width="1.0" stroke-linejoin="round" stroke-linecap="butt" d="m1137.5076 375.8184c-1.8188477 24.949707 -1.8188477 40.988617 -0.5196533 57.86615c1.2991943 16.877502 3.6478271 31.334198 8.314941 43.398956c4.6671143 12.064728 8.966797 22.23883 19.687622 28.989502c10.720947 6.7506714 35.65747 14.794373 44.637817 11.514404c8.980347 -3.2799683 14.758179 -24.283447 9.244141 -31.194214c-5.514038 -6.9107666 -32.38501 -1.9024353 -42.328125 -10.270325c-9.943115 -8.367889 -12.81665 -23.009644 -17.330688 -39.93701c-4.514038 -16.927399 -7.86792 -36.26071 -9.753296 -61.62729c-1.885376 -25.366577 0.43310547 -90.782166 -1.559082 -90.572205c-1.9920654 0.20999146 -8.574707 66.882355 -10.393677 91.83203z" fill-rule="evenodd"/><path fill="#91ffe4" fill-opacity="0.6955" d="m1321.0299 441.6664c-1.8188477 12.821075 -1.8188477 21.061676 -0.5196533 29.734894c1.2991943 8.673248 3.6478271 16.104126 8.314941 22.304474c4.6671143 6.200348 9.129883 11.495178 19.687622 14.897644c10.557739 3.4024353 33.879272 8.25589 43.658813 5.5170593c9.779541 -2.738861 20.369263 -18.465454 15.018433 -21.950134c-5.35083 -3.4846802 -36.381104 4.289154 -47.123413 1.0419922c-10.74231 -3.2471619 -12.816772 -11.825897 -17.330688 -20.524933c-4.514038 -8.699036 -7.86792 -18.63385 -9.753296 -31.669281c-1.885376 -13.035461 0.43310547 -46.651367 -1.559082 -46.543335c-1.9920654 0.108062744 -8.574829 34.370544 -10.393677 47.19162z" fill-rule="evenodd"/><path stroke="#000000" stroke-width="1.0" stroke-linejoin="round" stroke-linecap="butt" d="m1321.0299 441.6664c-1.8188477 12.821075 -1.8188477 21.061676 -0.5196533 29.734894c1.2991943 8.673248 3.6478271 16.104126 8.314941 22.304474c4.6671143 6.200348 9.129883 11.495178 19.687622 14.897644c10.557739 3.4024353 33.879272 8.25589 43.658813 5.5170593c9.779541 -2.738861 20.369263 -18.465454 15.018433 -21.950134c-5.35083 -3.4846802 -36.381104 4.289154 -47.123413 1.0419922c-10.74231 -3.2471619 -12.816772 -11.825897 -17.330688 -20.524933c-4.514038 -8.699036 -7.86792 -18.63385 -9.753296 -31.669281c-1.885376 -13.035461 0.43310547 -46.651367 -1.559082 -46.543335c-1.9920654 0.108062744 -8.574829 34.370544 -10.393677 47.19162z" fill-rule="evenodd"/></g></svg>